<?xml version="1.0" standalone="no"?>
<!DOCTYPE svg PUBLIC "-//W3C//DTD SVG 1.1//EN"
"http://www.w3.org/Graphics/SVG/1.1/DTD/svg11.dtd">
<svg xmlns="http://www.w3.org/2000/svg"
width="765" height="575" >
<g>
<line x1="40" y1="40"  x2="40" y2="500" style=" stroke: black;"/>
<text x="5" y="12" style="font-family: monospace; font-size: 10px;">nb. groups</text>
<line x1="40" y1="500"  x2="700" y2="500" style=" stroke: black;"/>
<text x="540" y="550" style="font-family: monospace; font-size: 10px;">prior intraspecific divergence (P)</text>
<line x1="37" y1="500"  x2="40" y2="500" style=" stroke: black;"/>
<text x="17" y="495" style="font-family: monospace; font-size: 10px;">0</text>
<line x1="37" y1="492"  x2="40" y2="492" style=" stroke: black;"/>
<line x1="37" y1="484"  x2="40" y2="484" style=" stroke: black;"/>
<text x="17" y="479" style="font-family: monospace; font-size: 10px;">2</text>
<line x1="37" y1="477"  x2="40" y2="477" style=" stroke: black;"/>
<line x1="37" y1="469"  x2="40" y2="469" style=" stroke: black;"/>
<text x="17" y="464" style="font-family: monospace; font-size: 10px;">4</text>
<line x1="37" y1="461"  x2="40" y2="461" style=" stroke: black;"/>
<line x1="37" y1="454"  x2="40" y2="454" style=" stroke: black;"/>
<text x="17" y="449" style="font-family: monospace; font-size: 10px;">6</text>
<line x1="37" y1="446"  x2="40" y2="446" style=" stroke: black;"/>
<line x1="37" y1="438"  x2="40" y2="438" style=" stroke: black;"/>
<text x="17" y="433" style="font-family: monospace; font-size: 10px;">8</text>
<line x1="37" y1="431"  x2="40" y2="431" style=" stroke: black;"/>
<line x1="37" y1="423"  x2="40" y2="423" style=" stroke: black;"/>
<text x="17" y="418" style="font-family: monospace; font-size: 10px;">10</text>
<line x1="37" y1="415"  x2="40" y2="415" style=" stroke: black;"/>
<line x1="37" y1="408"  x2="40" y2="408" style=" stroke: black;"/>
<text x="17" y="403" style="font-family: monospace; font-size: 10px;">12</text>
<line x1="37" y1="400"  x2="40" y2="400" style=" stroke: black;"/>
<line x1="37" y1="392"  x2="40" y2="392" style=" stroke: black;"/>
<text x="17" y="387" style="font-family: monospace; font-size: 10px;">14</text>
<line x1="37" y1="385"  x2="40" y2="385" style=" stroke: black;"/>
<line x1="37" y1="377"  x2="40" y2="377" style=" stroke: black;"/>
<text x="17" y="372" style="font-family: monospace; font-size: 10px;">16</text>
<line x1="37" y1="369"  x2="40" y2="369" style=" stroke: black;"/>
<line x1="37" y1="362"  x2="40" y2="362" style=" stroke: black;"/>
<text x="17" y="357" style="font-family: monospace; font-size: 10px;">18</text>
<line x1="37" y1="354"  x2="40" y2="354" style=" stroke: black;"/>
<line x1="37" y1="346"  x2="40" y2="346" style=" stroke: black;"/>
<text x="17" y="341" style="font-family: monospace; font-size: 10px;">20</text>
<line x1="37" y1="339"  x2="40" y2="339" style=" stroke: black;"/>
<line x1="37" y1="331"  x2="40" y2="331" style=" stroke: black;"/>
<text x="17" y="326" style="font-family: monospace; font-size: 10px;">22</text>
<line x1="37" y1="323"  x2="40" y2="323" style=" stroke: black;"/>
<line x1="37" y1="316"  x2="40" y2="316" style=" stroke: black;"/>
<text x="17" y="311" style="font-family: monospace; font-size: 10px;">24</text>
<line x1="37" y1="308"  x2="40" y2="308" style=" stroke: black;"/>
<line x1="37" y1="300"  x2="40" y2="300" style=" stroke: black;"/>
<text x="17" y="295" style="font-family: monospace; font-size: 10px;">26</text>
<line x1="37" y1="293"  x2="40" y2="293" style=" stroke: black;"/>
<line x1="37" y1="285"  x2="40" y2="285" style=" stroke: black;"/>
<text x="17" y="280" style="font-family: monospace; font-size: 10px;">28</text>
<line x1="37" y1="277"  x2="40" y2="277" style=" stroke: black;"/>
<line x1="37" y1="270"  x2="40" y2="270" style=" stroke: black;"/>
<text x="17" y="265" style="font-family: monospace; font-size: 10px;">30</text>
<line x1="37" y1="262"  x2="40" y2="262" style=" stroke: black;"/>
<line x1="37" y1="254"  x2="40" y2="254" style=" stroke: black;"/>
<text x="17" y="249" style="font-family: monospace; font-size: 10px;">32</text>
<line x1="37" y1="247"  x2="40" y2="247" style=" stroke: black;"/>
<line x1="37" y1="239"  x2="40" y2="239" style=" stroke: black;"/>
<text x="17" y="234" style="font-family: monospace; font-size: 10px;">34</text>
<line x1="37" y1="231"  x2="40" y2="231" style=" stroke: black;"/>
<line x1="37" y1="224"  x2="40" y2="224" style=" stroke: black;"/>
<text x="17" y="219" style="font-family: monospace; font-size: 10px;">36</text>
<line x1="37" y1="216"  x2="40" y2="216" style=" stroke: black;"/>
<line x1="37" y1="208"  x2="40" y2="208" style=" stroke: black;"/>
<text x="17" y="203" style="font-family: monospace; font-size: 10px;">38</text>
<line x1="37" y1="201"  x2="40" y2="201" style=" stroke: black;"/>
<line x1="37" y1="193"  x2="40" y2="193" style=" stroke: black;"/>
<text x="17" y="188" style="font-family: monospace; font-size: 10px;">40</text>
<line x1="37" y1="185"  x2="40" y2="185" style=" stroke: black;"/>
<line x1="37" y1="178"  x2="40" y2="178" style=" stroke: black;"/>
<text x="17" y="173" style="font-family: monospace; font-size: 10px;">42</text>
<line x1="37" y1="170"  x2="40" y2="170" style=" stroke: black;"/>
<line x1="37" y1="162"  x2="40" y2="162" style=" stroke: black;"/>
<text x="17" y="157" style="font-family: monospace; font-size: 10px;">44</text>
<line x1="37" y1="155"  x2="40" y2="155" style=" stroke: black;"/>
<line x1="37" y1="147"  x2="40" y2="147" style=" stroke: black;"/>
<text x="17" y="142" style="font-family: monospace; font-size: 10px;">46</text>
<line x1="37" y1="139"  x2="40" y2="139" style=" stroke: black;"/>
<line x1="37" y1="132"  x2="40" y2="132" style=" stroke: black;"/>
<text x="17" y="127" style="font-family: monospace; font-size: 10px;">48</text>
<line x1="37" y1="124"  x2="40" y2="124" style=" stroke: black;"/>
<line x1="37" y1="116"  x2="40" y2="116" style=" stroke: black;"/>
<text x="17" y="111" style="font-family: monospace; font-size: 10px;">50</text>
<line x1="37" y1="109"  x2="40" y2="109" style=" stroke: black;"/>
<line x1="37" y1="101"  x2="40" y2="101" style=" stroke: black;"/>
<text x="17" y="96" style="font-family: monospace; font-size: 10px;">52</text>
<line x1="37" y1="93"  x2="40" y2="93" style=" stroke: black;"/>
<line x1="37" y1="86"  x2="40" y2="86" style=" stroke: black;"/>
<text x="17" y="81" style="font-family: monospace; font-size: 10px;">54</text>
<line x1="37" y1="78"  x2="40" y2="78" style=" stroke: black;"/>
<line x1="37" y1="70"  x2="40" y2="70" style=" stroke: black;"/>
<text x="17" y="65" style="font-family: monospace; font-size: 10px;">56</text>
<line x1="37" y1="63"  x2="40" y2="63" style=" stroke: black;"/>
<line x1="37" y1="55"  x2="40" y2="55" style=" stroke: black;"/>
<text x="17" y="50" style="font-family: monospace; font-size: 10px;">58</text>
<line x1="37" y1="47"  x2="40" y2="47" style=" stroke: black;"/>
<line x1="37" y1="40"  x2="40" y2="40" style=" stroke: black;"/>
<text x="17" y="35" style="font-family: monospace; font-size: 10px;">60</text>
<line x1="40" y1="500"  x2="40" y2="503" style=" stroke: black;"/>
<line x1="189" y1="500"  x2="189" y2="503" style=" stroke: black;"/>
<line x1="276" y1="500"  x2="276" y2="503" style=" stroke: black;"/>
<line x1="338" y1="500"  x2="338" y2="503" style=" stroke: black;"/>
<line x1="385" y1="500"  x2="385" y2="503" style=" stroke: black;"/>
<line x1="425" y1="500"  x2="425" y2="503" style=" stroke: black;"/>
<line x1="458" y1="500"  x2="458" y2="503" style=" stroke: black;"/>
<line x1="487" y1="500"  x2="487" y2="503" style=" stroke: black;"/>
<line x1="512" y1="500"  x2="512" y2="503" style=" stroke: black;"/>
<line x1="535" y1="500"  x2="535" y2="503" style=" stroke: black;"/>
<line x1="684" y1="500"  x2="684" y2="503" style=" stroke: black;"/>
<rect x="640" y="20" width="5" height="5" fill= "#D82424" />
<text x="648" y="25" style="font-family: monospace; font-size: 10px;">Recursive Partition</text>
<rect x="640" y="40" width="5" height="5" fill= "#EBE448" />
<text x="648" y="45" style="font-family: monospace; font-size: 10px;">Initial Partition</text>
<rect x="40" y="47" width="5" height="5" fill= "#D82424" />
<line x1="40" y1="500"  x2="40" y2="505" style=" stroke: black;"/>
<text x="35" y="505" transform="rotate(90,35,505)" style="font-family: monospace; font-size: 10px;">0.0010</text>
<rect x="40" y="47" width="5" height="5" fill= "#EBE448" />
<rect x="150" y="423" width="5" height="5" fill= "#D82424" />
<line x1="150" y1="500"  x2="150" y2="505" style=" stroke: black;"/>
<text x="145" y="505" transform="rotate(90,145,505)" style="font-family: monospace; font-size: 10px;">0.0017</text>
<rect x="150" y="423" width="5" height="5" fill= "#EBE448" />
<rect x="260" y="423" width="5" height="5" fill= "#D82424" />
<line x1="260" y1="500"  x2="260" y2="505" style=" stroke: black;"/>
<text x="255" y="505" transform="rotate(90,255,505)" style="font-family: monospace; font-size: 10px;">0.0028</text>
<rect x="260" y="423" width="5" height="5" fill= "#EBE448" />
<rect x="369" y="423" width="5" height="5" fill= "#D82424" />
<line x1="369" y1="500"  x2="369" y2="505" style=" stroke: black;"/>
<text x="364" y="505" transform="rotate(90,364,505)" style="font-family: monospace; font-size: 10px;">0.0046</text>
<rect x="369" y="423" width="5" height="5" fill= "#EBE448" />
<rect x="480" y="423" width="5" height="5" fill= "#D82424" />
<line x1="480" y1="500"  x2="480" y2="505" style=" stroke: black;"/>
<text x="475" y="505" transform="rotate(90,475,505)" style="font-family: monospace; font-size: 10px;">0.0077</text>
<rect x="480" y="423" width="5" height="5" fill= "#EBE448" />
<rect x="590" y="423" width="5" height="5" fill= "#D82424" />
<line x1="590" y1="500"  x2="590" y2="505" style=" stroke: black;"/>
<text x="585" y="505" transform="rotate(90,585,505)" style="font-family: monospace; font-size: 10px;">0.0129</text>
<rect x="590" y="423" width="5" height="5" fill= "#EBE448" />
<rect x="700" y="492" width="5" height="5" fill= "#D82424" />
<line x1="700" y1="500"  x2="700" y2="505" style=" stroke: black;"/>
<text x="695" y="505" transform="rotate(90,695,505)" style="font-family: monospace; font-size: 10px;">0.0215</text>
<rect x="700" y="492" width="5" height="5" fill= "#EBE448" />
</g>
</svg>
