<?xml version="1.0" standalone="no"?>
<!DOCTYPE svg PUBLIC "-//W3C//DTD SVG 1.1//EN"
"http://www.w3.org/Graphics/SVG/1.1/DTD/svg11.dtd">
<svg xmlns="http://www.w3.org/2000/svg"
width="745" height="545" >
<g>
<line x1="40" y1="40"  x2="40" y2="500" style=" stroke: black;"/>
<line x1="40" y1="500"  x2="700" y2="500" style=" stroke: black;"/>
<line x1="37" y1="454"  x2="40" y2="454" style=" stroke: black;"/>
<text x="8" y="454" style="font-family: monospace; font-size: 10px;">0.01</text>
<line x1="37" y1="408"  x2="40" y2="408" style=" stroke: black;"/>
<text x="8" y="408" style="font-family: monospace; font-size: 10px;">0.03</text>
<line x1="37" y1="362"  x2="40" y2="362" style=" stroke: black;"/>
<text x="8" y="362" style="font-family: monospace; font-size: 10px;">0.04</text>
<line x1="37" y1="316"  x2="40" y2="316" style=" stroke: black;"/>
<text x="8" y="316" style="font-family: monospace; font-size: 10px;">0.05</text>
<line x1="37" y1="270"  x2="40" y2="270" style=" stroke: black;"/>
<text x="8" y="270" style="font-family: monospace; font-size: 10px;">0.06</text>
<line x1="37" y1="224"  x2="40" y2="224" style=" stroke: black;"/>
<text x="8" y="224" style="font-family: monospace; font-size: 10px;">0.08</text>
<line x1="37" y1="178"  x2="40" y2="178" style=" stroke: black;"/>
<text x="8" y="178" style="font-family: monospace; font-size: 10px;">0.09</text>
<line x1="37" y1="132"  x2="40" y2="132" style=" stroke: black;"/>
<text x="8" y="132" style="font-family: monospace; font-size: 10px;">0.10</text>
<line x1="37" y1="86"  x2="40" y2="86" style=" stroke: black;"/>
<text x="8" y="86" style="font-family: monospace; font-size: 10px;">0.12</text>
<line x1="37" y1="40"  x2="40" y2="40" style=" stroke: black;"/>
<text x="8" y="40" style="font-family: monospace; font-size: 10px;">0.13</text>
<line x1="106" y1="500"  x2="106" y2="505" style=" stroke: black;"/>
<text x="106" y="505" transform="rotate(90,106,505)" style="font-family: monospace; font-size: 10px;">2236</text>
<line x1="172" y1="500"  x2="172" y2="505" style=" stroke: black;"/>
<text x="172" y="505" transform="rotate(90,172,505)" style="font-family: monospace; font-size: 10px;">4472</text>
<line x1="238" y1="500"  x2="238" y2="505" style=" stroke: black;"/>
<text x="238" y="505" transform="rotate(90,238,505)" style="font-family: monospace; font-size: 10px;">6708</text>
<line x1="304" y1="500"  x2="304" y2="505" style=" stroke: black;"/>
<text x="304" y="505" transform="rotate(90,304,505)" style="font-family: monospace; font-size: 10px;">8944</text>
<line x1="370" y1="500"  x2="370" y2="505" style=" stroke: black;"/>
<text x="370" y="505" transform="rotate(90,370,505)" style="font-family: monospace; font-size: 10px;">11180</text>
<line x1="436" y1="500"  x2="436" y2="505" style=" stroke: black;"/>
<text x="436" y="505" transform="rotate(90,436,505)" style="font-family: monospace; font-size: 10px;">13416</text>
<line x1="502" y1="500"  x2="502" y2="505" style=" stroke: black;"/>
<text x="502" y="505" transform="rotate(90,502,505)" style="font-family: monospace; font-size: 10px;">15652</text>
<line x1="568" y1="500"  x2="568" y2="505" style=" stroke: black;"/>
<text x="568" y="505" transform="rotate(90,568,505)" style="font-family: monospace; font-size: 10px;">17888</text>
<line x1="634" y1="500"  x2="634" y2="505" style=" stroke: black;"/>
<text x="634" y="505" transform="rotate(90,634,505)" style="font-family: monospace; font-size: 10px;">20124</text>
<line x1="700" y1="500"  x2="700" y2="505" style=" stroke: black;"/>
<text x="700" y="505" transform="rotate(90,700,505)" style="font-family: monospace; font-size: 10px;">22360</text>
<text x="705" y="490" style="font-family: monospace; font-size: 10px;">Rank</text>
<text x="5" y="15" style="font-family: monospace; font-size: 10px;">Dist. value</text>
<polyline style="stroke: #D82424; stroke-width:1;fill: none;"  points="40 500,41 500,42 500,43 500,44 500,45 500,46 500,47 500,48 500,49 500,50 500,51 500,52 500,53 500,54 500,55 500,56 500,57 500,58 500,59 500,60 500,61 500,62 500,63 500,64 500,65 500,66 500,67 500,68 500,69 500,70 500,71 500,72 500,72 494,73 494,74 494,75 494,76 494,77 494,78 494,79 494,80 494,81 494,82 494,83 494,84 494,85 494,86 494,87 494,88 494,89 494,89 493,90 493,91 493,92 493,93 493,94 493,95 493,96 493,97 493,97 492,97 491,98 491,99 491,99 490,100 490,101 490,102 490,103 490,103 489,104 489,105 489,106 489,106 488,107 488,108 488,109 488,110 488,110 487,111 487,112 487,113 487,113 486,114 486,114 485,114 483,115 483,116 483,117 483,118 483,118 482,119 482,120 482,121 482,121 481,122 481,122 480,123 480,123 479,123 478,124 478,125 478,126 478,126 477,127 477,127 476,128 476,129 476,129 475,130 475,130 474,131 474,131 473,131 472,132 472,133 472,134 472,134 471,135 471,135 470,135 469,135 468,135 467,136 467,136 466,137 466,137 465,137 464,138 464,138 463,138 462,138 461,139 461,139 460,139 459,140 459,140 458,140 457,140 456,141 456,142 456,142 455,142 454,142 453,143 453,143 452,143 451,143 450,144 450,144 449,145 449,145 448,145 447,145 446,145 445,146 445,146 444,146 440,146 439,146 438,146 437,146 436,146 434,146 431,146 430,146 428,147 428,147 427,147 426,147 425,147 423,147 422,147 420,148 420,148 419,148 418,148 417,149 417,149 416,149 415,149 414,150 414,150 413,150 412,151 412,151 411,151 410,152 410,152 409,152 408,152 407,152 406,152 405,152 404,152 403,153 403,154 403,154 402,154 401,154 400,155 399,155 398,155 397,155 396,156 396,156 395,156 394,157 394,157 393,158 393,158 392,159 391,159 390,159 389,160 389,160 388,161 388,161 387,161 386,161 385,162 385,163 385,163 384,163 383,164 383,164 382,164 381,164 380,165 380,165 379,165 378,166 378,166 377,167 377,167 376,167 375,167 374,167 373,168 373,168 372,169 372,170 372,171 372,172 372,172 371,173 371,173 370,173 369,174 369,174 368,174 367,175 367,175 366,176 366,177 366,178 366,179 366,180 366,180 365,180 364,181 363,181 362,181 361,182 361,182 360,183 360,184 360,184 359,184 358,185 358,185 356,185 355,186 355,186 354,186 352,186 351,186 350,186 349,187 349,187 348,187 347,187 344,188 344,188 343,188 342,188 340,188 339,188 338,188 337,189 337,189 336,189 335,189 334,189 332,190 332,191 331,191 330,191 329,191 327,191 326,191 325,192 325,192 324,192 323,192 322,193 322,193 321,194 321,194 320,195 320,195 319,196 319,197 319,197 318,197 317,198 316,198 315,198 314,199 314,200 314,201 314,202 314,203 314,204 314,204 313,204 312,205 312,206 312,206 311,207 311,207 310,208 310,209 310,209 309,210 309,210 308,211 308,212 308,213 308,214 308,215 308,216 308,217 308,218 308,219 308,220 307,221 307,222 307,222 306,223 306,224 306,224 305,225 305,225 304,226 304,227 304,227 303,228 303,229 303,230 303,231 303,232 303,233 303,234 303,235 303,236 303,237 303,238 303,239 303,240 303,241 303,241 302,242 302,243 302,243 301,244 301,244 300,245 300,246 299,247 299,248 299,248 298,249 298,250 298,250 297,251 297,252 297,253 297,254 297,255 297,256 297,257 297,258 297,259 297,260 297,260 296,261 296,262 296,262 295,263 295,264 295,264 294,265 294,266 294,267 294,268 294,269 293,270 293,271 293,272 293,272 292,273 292,274 292,274 291,275 291,276 291,277 291,278 291,279 291,280 291,281 291,282 291,283 291,283 290,284 290,285 290,286 290,286 289,287 289,288 289,289 289,290 289,290 288,291 288,292 288,293 288,294 288,294 287,295 287,296 287,296 286,297 286,298 286,299 286,300 286,301 286,301 285,302 285,303 285,304 285,305 285,306 285,307 285,308 285,309 285,310 285,311 285,312 285,313 285,313 284,314 284,314 283,315 283,316 283,317 283,318 283,318 282,319 282,320 282,321 282,321 281,322 281,323 281,324 281,324 280,325 280,326 280,327 280,327 279,328 279,329 279,330 279,331 279,332 279,333 279,334 279,335 279,336 279,336 278,337 278,338 278,339 278,340 278,341 278,342 278,342 277,343 277,344 277,344 276,345 276,346 276,346 275,347 275,347 274,348 274,349 274,349 273,350 273,351 273,352 273,353 273,354 273,355 273,356 273,357 273,358 273,359 273,360 273,361 273,362 273,363 273,364 273,365 273,366 273,367 273,367 272,368 272,369 272,370 272,371 272,372 272,373 272,373 271,374 271,375 271,376 271,377 271,378 271,379 271,379 270,380 270,381 270,381 269,382 269,383 269,384 269,384 268,385 268,386 268,387 268,387 267,388 267,389 267,390 267,391 267,392 267,393 267,394 267,395 267,396 267,397 267,398 267,398 266,399 266,400 266,401 266,402 266,402 265,403 265,404 265,405 265,406 265,406 264,407 264,408 264,408 263,409 263,409 262,410 262,411 262,411 261,412 261,413 261,414 261,415 261,416 261,417 261,418 261,419 261,420 261,421 261,422 261,423 261,424 261,425 261,426 261,427 261,428 261,429 261,429 260,430 260,431 260,432 260,433 260,433 259,434 259,435 259,435 258,436 258,437 258,438 258,438 257,439 257,439 256,440 256,441 256,442 256,442 255,443 255,444 255,445 255,446 255,447 255,448 255,449 255,450 255,451 255,452 255,453 255,454 255,454 254,455 254,456 254,457 254,457 253,458 253,458 252,459 252,460 252,461 252,462 252,463 252,464 252,465 252,465 251,466 251,466 250,467 250,468 250,469 250,470 250,471 250,472 250,473 250,474 250,475 250,475 249,476 249,477 249,478 249,478 248,479 248,479 247,480 247,481 247,481 246,482 246,483 246,484 246,484 245,485 245,486 244,487 244,488 244,489 244,490 244,491 244,492 244,493 244,494 244,495 244,496 244,497 244,498 244,498 243,499 243,500 243,501 243,502 243,503 243,503 242,504 242,505 241,506 241,506 240,507 240,507 239,508 239,509 239,510 239,510 238,511 238,512 238,513 238,514 238,515 238,516 238,517 238,518 238,519 238,520 238,521 238,522 238,523 238,524 238,525 238,525 237,526 237,527 237,528 237,528 236,529 236,529 235,530 235,530 234,531 234,532 234,533 234,533 233,534 232,535 232,536 232,537 232,538 232,539 232,540 232,541 232,542 232,543 232,544 232,545 232,546 232,547 232,548 232,549 232,550 232,551 232,551 231,552 231,553 231,554 231,555 231,555 230,556 230,557 230,558 230,558 229,559 229,559 228,560 228,560 227,561 227,561 226,562 226,563 226,564 226,565 226,566 226,567 226,568 226,569 226,570 226,571 226,572 226,573 226,574 226,574 225,575 225,576 225,577 225,578 225,578 224,579 224,580 224,581 224,581 223,582 223,582 222,583 222,583 221,583 220,584 220,585 220,586 220,587 220,588 220,589 220,590 220,591 220,592 220,592 219,593 219,593 218,594 218,595 218,596 218,596 217,597 217,598 217,598 216,599 216,599 215,600 215,601 215,602 215,602 214,603 214,604 214,605 214,606 214,607 214,608 214,609 214,610 214,610 213,611 213,612 213,613 213,614 213,614 212,614 211,615 211,616 211,617 211,617 210,618 210,619 210,619 209,619 208,620 208,621 208,622 208,623 208,624 208,625 208,626 208,627 208,628 208,628 207,629 207,629 206,630 206,630 205,631 205,632 205,633 205,633 204,634 204,635 204,635 203,636 203,636 202,637 202,637 201,638 201,639 201,640 201,641 201,642 201,642 200,643 200,643 199,643 198,644 198,644 197,644 196,645 196,646 196,647 196,648 196,648 195,649 195,650 195,651 195,652 195,653 195,653 194,653 193,654 193,654 192,655 192,656 192,656 191,656 190,656 189,657 189,658 189,659 189,660 189,660 188,660 187,661 187,661 186,662 186,662 185,662 184,663 184,663 183,664 183,665 183,666 183,667 183,668 183,668 182,669 182,669 181,670 180,670 179,671 179,671 178,671 177,672 177,673 177,674 177,675 177,675 176,676 175,676 174,676 173,677 173,677 172,677 171,678 171,679 170,679 169,679 168,679 166,679 165,680 165,680 164,680 163,681 163,681 162,681 161,681 160,681 158,682 158,682 155,682 154,683 154,683 153,683 152,683 149,683 148,684 148,684 147,684 146,684 144,684 141,684 140,685 140,685 139,685 138,685 135,685 134,686 134,687 134,687 131,687 129,688 129,688 128,689 128,690 128,691 128,692 128,692 127,692 125,692 124,692 122,692 121,693 121,694 121,694 120,694 119,695 118,695 117,695 115,696 115,696 113,696 112,696 111,696 110,697 110,697 109,697 106,698 106,698 104,698 103,698 100,698 99,698 97,698 95,698 90,698 87,698 80,699 80,699 77,699 70,699 46,699 39"/></g>
</svg>
