<?xml version="1.0" encoding="utf-8"?>
<!DOCTYPE svg PUBLIC "-//W3C//DTD SVG 1.1//EN" "http://www.w3.org/Graphics/SVG/1.1/DTD/svg11.dtd">
<svg  version="1.1" id="Layer_1" xmlns="http://www.w3.org/2000/svg" xmlns:xlink="http://www.w3.org/1999/xlink" width="954" height="648" viewBox="0 0 954 648"
	 overflow="visible" enable-background="new 0 0 954 648" xml:space="preserve">
<rect fill="#FFFFFF" width="954" height="648"/>
<path opacity="0.3" fill="#FFFFFF" stroke="#000000" d="M193.5,328.801c0,4.805-3.895,8.699-8.699,8.699h-9.602
	c-4.805,0-8.699-3.895-8.699-8.699v-9.602c0-4.805,3.895-8.699,8.699-8.699h9.602c4.805,0,8.699,3.895,8.699,8.699V328.801z"/>
<text transform="matrix(1 0 0 1 175.2725 330)" opacity="0.3" fill="#0000FF" font-family="Helvetica'" font-size="17">0</text>
<path opacity="0.3" fill="#FFFFFF" stroke="#000000" d="M409.5,328.801c0,4.805-3.895,8.699-8.699,8.699h-9.602
	c-4.804,0-8.699-3.895-8.699-8.699v-9.602c0-4.805,3.895-8.699,8.699-8.699h9.602c4.804,0,8.699,3.895,8.699,8.699V328.801z"/>
<text transform="matrix(1 0 0 1 391.2725 330)" opacity="0.3" fill="#0000FF" font-family="Helvetica'" font-size="17">1</text>
<g opacity="0.3">
	<path fill="none" stroke="#0000FF" d="M403.908,304.908c10.544-10.543,27.64-10.543,38.184,0c10.544,10.545,10.544,27.64,0,38.184
		c-10.544,10.545-27.639,10.545-38.184,0"/>
	<path fill="#0000FF" d="M400.707,339.892c2.065,0.946,4.888,1.862,7.054,2.011l-3.434,1.609l-1.609,3.434
		C402.57,344.779,401.654,341.956,400.707,339.892z"/>
</g>
<g opacity="0.3">
	<path fill="none" stroke="#0000FF" d="M172.092,343.092c-10.544,10.543-27.64,10.543-38.184,0
		c-10.544-10.545-10.544-27.64,0-38.184c10.544-10.545,27.639-10.545,38.184,0"/>
	<path fill="#0000FF" d="M175.293,308.108c-2.065-0.946-4.887-1.862-7.055-2.011l3.434-1.609l1.609-3.434
		C173.43,303.221,174.345,306.044,175.293,308.108z"/>
</g>
<g opacity="0.3">
	<path fill="none" stroke="#0000FF" d="M396,344.25c0,29.823-48.353,54-108,54c-59.646,0-108-24.177-108-54"/>
	<path fill="#0000FF" d="M180,339.724c0.79,2.13,2.139,4.772,3.566,6.41l-3.566-1.29l-3.566,1.29
		C177.861,344.496,179.21,341.854,180,339.724z"/>
</g>
<g opacity="0.3">
	<path fill="none" stroke="#0000FF" d="M180,303.75c0-29.824,48.354-54,108-54c59.647,0,108,24.176,108,54"/>
	<path fill="#0000FF" d="M396,308.276c-0.79-2.13-2.139-4.772-3.566-6.41l3.566,1.29l3.566-1.29
		C398.139,303.504,396.79,306.146,396,308.276z"/>
</g>
<path fill="#FFFFFF" stroke="#000000" d="M85.5,112.801c0,4.804-3.895,8.699-8.699,8.699h-9.602c-4.805,0-8.699-3.895-8.699-8.699
	v-9.602c0-4.804,3.895-8.699,8.699-8.699h9.602c4.805,0,8.699,3.895,8.699,8.699V112.801z"/>
<text transform="matrix(1 0 0 1 67.2725 114)" fill="#0000FF" font-family="Helvetica'" font-size="17">0</text>
<path fill="#FFFFFF" stroke="#000000" d="M301.5,112.801c0,4.804-3.895,8.699-8.699,8.699h-9.602c-4.804,0-8.699-3.895-8.699-8.699
	v-9.602c0-4.804,3.895-8.699,8.699-8.699h9.602c4.804,0,8.699,3.895,8.699,8.699V112.801z"/>
<text transform="matrix(1 0 0 1 283.2725 114)" fill="#0000FF" font-family="Helvetica'" font-size="17">1</text>
<g>
	<path fill="none" stroke="#0000FF" d="M295.908,88.909c10.544-10.544,27.64-10.544,38.184,0s10.544,27.639,0,38.183
		c-10.544,10.545-27.639,10.545-38.184,0"/>
	<path fill="#0000FF" d="M292.707,123.892c2.065,0.947,4.888,1.862,7.054,2.01l-3.434,1.61l-1.609,3.434
		C294.57,128.779,293.654,125.956,292.707,123.892z"/>
</g>
<g>
	<path fill="none" stroke="#0000FF" d="M64.092,127.091c-10.544,10.544-27.64,10.544-38.184,0s-10.544-27.639,0-38.183
		c10.544-10.545,27.639-10.545,38.184,0"/>
	<path fill="#0000FF" d="M67.293,92.108c-2.065-0.947-4.887-1.862-7.055-2.01l3.434-1.61l1.609-3.434
		C65.43,87.221,66.345,90.044,67.293,92.108z"/>
</g>
<path fill="#FFFFFF" stroke="#000000" d="M139.5,328.801c0,4.805-3.895,8.699-8.699,8.699h-9.602c-4.805,0-8.699-3.895-8.699-8.699
	v-9.602c0-4.805,3.895-8.699,8.699-8.699h9.602c4.805,0,8.699,3.895,8.699,8.699V328.801z"/>
<text transform="matrix(1 0 0 1 116.5454 330)" fill="#FF0000" font-family="Helvetica'" font-size="17">00</text>
<path fill="#FFFFFF" stroke="#000000" d="M301.5,254.551c0,4.805-3.895,8.699-8.699,8.699h-9.602c-4.805,0-8.699-3.895-8.699-8.699
	v-9.602c0-4.805,3.895-8.699,8.699-8.699h9.602c4.805,0,8.699,3.895,8.699,8.699V254.551z"/>
<text transform="matrix(1 0 0 1 278.5454 255.75)" fill="#FF0000" font-family="Helvetica'" font-size="17">01</text>
<path fill="#FFFFFF" stroke="#000000" d="M301.5,403.051c0,4.805-3.895,8.699-8.699,8.699h-9.602c-4.805,0-8.699-3.895-8.699-8.699
	v-9.602c0-4.805,3.895-8.699,8.699-8.699h9.602c4.805,0,8.699,3.895,8.699,8.699V403.051z"/>
<text transform="matrix(1 0 0 1 278.5454 404.25)" fill="#FF0000" font-family="Helvetica'" font-size="17">10</text>
<path fill="#FFFFFF" stroke="#000000" d="M463.5,328.801c0,4.805-3.895,8.699-8.699,8.699h-9.602c-4.804,0-8.699-3.895-8.699-8.699
	v-9.602c0-4.805,3.895-8.699,8.699-8.699h9.602c4.804,0,8.699,3.895,8.699,8.699V328.801z"/>
<text transform="matrix(1 0 0 1 440.5454 330)" fill="#FF0000" font-family="Helvetica'" font-size="17">11</text>
<g>
	<path fill="none" stroke="#FF0000" d="M131.425,303.75c11.184-19.371,35.953-26.008,55.324-14.825
		c19.371,11.185,26.009,35.954,14.824,55.325c-11.184,19.371-35.953,26.008-55.324,14.823c-6.39-3.688-11.394-8.856-14.83-14.82"/>
	<path fill="#FF0000" d="M129.16,340.331c1.748,1.45,4.235,3.067,6.29,3.774l-3.734,0.662l-2.446,2.897
		C129.689,345.534,129.539,342.57,129.16,340.331z"/>
</g>
<g>
	<path fill="none" stroke="#FF0000" d="M444.574,344.25c-11.184,19.371-35.953,26.008-55.323,14.825
		c-19.371-11.185-26.009-35.954-14.824-55.325c11.184-19.371,35.953-26.008,55.325-14.823c6.39,3.688,11.394,8.856,14.829,14.82"/>
	<path fill="#FF0000" d="M446.84,307.669c-1.749-1.45-4.236-3.067-6.29-3.774l3.734-0.662l2.446-2.897
		C446.311,302.466,446.461,305.43,446.84,307.669z"/>
</g>
<g>
	<path fill="none" stroke="#FF0000" d="M126,303.75c0-54,141.75-54,141.75-54"/>
	<path fill="#FF0000" d="M272.276,249.75c-2.13,0.79-4.772,2.139-6.41,3.566l1.29-3.566l-1.29-3.566
		C267.504,247.611,270.146,248.961,272.276,249.75z"/>
</g>
<g>
	<path fill="none" stroke="#FF0000" d="M308.25,249.75c0,0,141.75,0,141.75,54"/>
	<path fill="#FF0000" d="M450,308.276c-0.79-2.13-2.139-4.772-3.566-6.41l3.566,1.29l3.566-1.29
		C452.139,303.504,450.79,306.146,450,308.276z"/>
</g>
<g>
	<path fill="none" stroke="#FF0000" d="M450,344.25c0,54-141.75,54-141.75,54"/>
	<path fill="#FF0000" d="M303.724,398.25c2.13-0.79,4.772-2.139,6.41-3.566l-1.29,3.566l1.29,3.566
		C308.496,400.389,305.854,399.04,303.724,398.25z"/>
</g>
<g>
	<path fill="none" stroke="#FF0000" d="M267.75,398.25c0,0-141.75,0-141.75-54"/>
	<path fill="#FF0000" d="M126,339.724c0.79,2.13,2.139,4.772,3.566,6.41l-3.566-1.29l-3.566,1.29
		C123.861,344.496,125.21,341.854,126,339.724z"/>
</g>
<g>
	<path fill="none" stroke="#0000FF" d="M288,128.25c0,29.823-48.353,54-108,54c-59.646,0-108-24.177-108-54"/>
	<path fill="#0000FF" d="M72,123.724c0.79,2.13,2.139,4.772,3.566,6.41L72,128.844l-3.566,1.29
		C69.861,128.496,71.21,125.854,72,123.724z"/>
</g>
<g>
	<path fill="none" stroke="#0000FF" d="M72,87.75c0-29.824,48.354-54,108-54c59.647,0,108,24.176,108,54"/>
	<path fill="#0000FF" d="M288,92.276c-0.79-2.13-2.139-4.772-3.566-6.41l3.566,1.29l3.566-1.29
		C290.139,87.504,288.79,90.146,288,92.276z"/>
</g>
<g>
	<path fill="none" stroke="#FF0000" d="M308.25,256.5c14.912,0,27,30.221,27,67.5s-12.088,67.5-27,67.5"/>
	<path fill="#FF0000" d="M303.724,391.5c2.13-0.79,4.772-2.139,6.41-3.566l-1.29,3.566l1.29,3.566
		C308.496,393.639,305.854,392.29,303.724,391.5z"/>
</g>
<g>
	<path fill="none" stroke="#FF0000" d="M267.75,391.5c-14.912,0-27-30.221-27-67.5s12.088-67.5,27-67.5"/>
	<path fill="#FF0000" d="M272.276,256.5c-2.13,0.79-4.772,2.139-6.41,3.566l1.29-3.566l-1.29-3.566
		C267.504,254.361,270.146,255.711,272.276,256.5z"/>
</g>
<path fill="#FFFFFF" stroke="#000000" d="M335.25,544.801c0,4.805-3.895,8.699-8.699,8.699h-9.602c-4.805,0-8.699-3.895-8.699-8.699
	v-9.602c0-4.805,3.895-8.699,8.699-8.699h9.602c4.805,0,8.699,3.895,8.699,8.699V544.801z"/>
<text transform="matrix(1 0 0 1 312.2954 546)" fill="#FF0000" font-family="Helvetica'" font-size="17">00</text>
<path fill="#FFFFFF" stroke="#000000" d="M497.25,470.551c0,4.805-3.895,8.699-8.699,8.699h-9.602c-4.805,0-8.699-3.895-8.699-8.699
	v-9.602c0-4.805,3.895-8.699,8.699-8.699h9.602c4.805,0,8.699,3.895,8.699,8.699V470.551z"/>
<text transform="matrix(1 0 0 1 474.2954 471.75)" fill="#FF0000" font-family="Helvetica'" font-size="17">01</text>
<path fill="#FFFFFF" stroke="#000000" d="M497.25,619.051c0,4.805-3.895,8.699-8.699,8.699h-9.602c-4.805,0-8.699-3.895-8.699-8.699
	v-9.602c0-4.805,3.895-8.699,8.699-8.699h9.602c4.805,0,8.699,3.895,8.699,8.699V619.051z"/>
<text transform="matrix(1 0 0 1 474.2954 620.25)" fill="#FF0000" font-family="Helvetica'" font-size="17">10</text>
<path fill="#FFFFFF" stroke="#000000" d="M659.25,544.801c0,4.805-3.895,8.699-8.699,8.699h-9.602c-4.805,0-8.699-3.895-8.699-8.699
	v-9.602c0-4.805,3.895-8.699,8.699-8.699h9.602c4.805,0,8.699,3.895,8.699,8.699V544.801z"/>
<text transform="matrix(1 0 0 1 636.2949 546)" fill="#FF0000" font-family="Helvetica'" font-size="17">11</text>
<g>
	<path fill="none" stroke="#FF0000" d="M327.175,519.75c11.184-19.371,35.953-26.008,55.324-14.825
		c19.371,11.185,26.009,35.954,14.824,55.325c-11.184,19.371-35.953,26.008-55.324,14.823c-6.39-3.688-11.394-8.856-14.83-14.82"/>
	<path fill="#FF0000" d="M324.91,556.331c1.748,1.45,4.235,3.067,6.29,3.774l-3.734,0.662l-2.446,2.897
		C325.439,561.534,325.289,558.57,324.91,556.331z"/>
</g>
<g>
	<path fill="none" stroke="#FF0000" d="M640.324,560.25c-11.184,19.371-35.953,26.008-55.323,14.825
		c-19.37-11.185-26.009-35.954-14.824-55.325c11.184-19.371,35.953-26.008,55.325-14.823c6.389,3.688,11.393,8.856,14.828,14.82"/>
	<path fill="#FF0000" d="M642.59,523.669c-1.748-1.45-4.236-3.067-6.289-3.774l3.733-0.662l2.446-2.897
		C642.061,518.466,642.211,521.43,642.59,523.669z"/>
</g>
<g>
	<path fill="none" stroke="#FF0000" d="M321.75,519.75c0-54,141.75-54,141.75-54"/>
	<path fill="#FF0000" d="M468.026,465.75c-2.13,0.79-4.772,2.139-6.41,3.566l1.29-3.566l-1.29-3.566
		C463.254,463.611,465.896,464.961,468.026,465.75z"/>
</g>
<g>
	<path fill="none" stroke="#FF0000" d="M504,465.75c0,0,141.75,0,141.75,54"/>
	<path fill="#FF0000" d="M645.75,524.276c-0.79-2.13-2.139-4.772-3.566-6.41l3.566,1.29l3.566-1.29
		C647.889,519.504,646.539,522.146,645.75,524.276z"/>
</g>
<g>
	<path fill="none" stroke="#FF0000" d="M645.75,560.25c0,54-141.75,54-141.75,54"/>
	<path fill="#FF0000" d="M499.474,614.25c2.13-0.79,4.772-2.139,6.41-3.566l-1.29,3.566l1.29,3.566
		C504.246,616.389,501.604,615.04,499.474,614.25z"/>
</g>
<g>
	<path fill="none" stroke="#FF0000" d="M463.5,614.25c0,0-141.75,0-141.75-54"/>
	<path fill="#FF0000" d="M321.75,555.724c0.79,2.13,2.139,4.772,3.566,6.41l-3.566-1.29l-3.566,1.29
		C319.611,560.496,320.96,557.854,321.75,555.724z"/>
</g>
<g>
	<path fill="none" stroke="#FF0000" d="M504,472.5c14.912,0,27,30.221,27,67.5s-12.088,67.5-27,67.5"/>
	<path fill="#FF0000" d="M499.474,607.5c2.13-0.79,4.772-2.139,6.41-3.566l-1.29,3.566l1.29,3.566
		C504.246,609.639,501.604,608.29,499.474,607.5z"/>
</g>
<g>
	<path fill="none" stroke="#FF0000" d="M463.5,607.5c-14.912,0-27-30.221-27-67.5s12.088-67.5,27-67.5"/>
	<path fill="#FF0000" d="M468.026,472.5c-2.13,0.79-4.772,2.139-6.41,3.566l1.29-3.566l-1.29-3.566
		C463.254,470.361,465.896,471.711,468.026,472.5z"/>
</g>
<path opacity="0.3" fill="#FFFFFF" stroke="#000000" d="M517.5,328.801c0,4.805-3.895,8.699-8.699,8.699h-9.602
	c-4.804,0-8.699-3.895-8.699-8.699v-9.602c0-4.805,3.895-8.699,8.699-8.699h9.602c4.804,0,8.699,3.895,8.699,8.699V328.801z"/>
<text transform="matrix(1 0 0 1 494.5454 330)" opacity="0.3" fill="#FF0000" font-family="Helvetica'" font-size="17">00</text>
<path opacity="0.3" fill="#FFFFFF" stroke="#000000" d="M679.5,254.551c0,4.805-3.895,8.699-8.699,8.699h-9.602
	c-4.805,0-8.699-3.895-8.699-8.699v-9.602c0-4.805,3.895-8.699,8.699-8.699h9.602c4.805,0,8.699,3.895,8.699,8.699V254.551z"/>
<text transform="matrix(1 0 0 1 656.5449 255.75)" opacity="0.3" fill="#FF0000" font-family="Helvetica'" font-size="17">01</text>
<path opacity="0.3" fill="#FFFFFF" stroke="#000000" d="M679.5,403.051c0,4.805-3.895,8.699-8.699,8.699h-9.602
	c-4.805,0-8.699-3.895-8.699-8.699v-9.602c0-4.805,3.895-8.699,8.699-8.699h9.602c4.805,0,8.699,3.895,8.699,8.699V403.051z"/>
<text transform="matrix(1 0 0 1 656.5449 404.25)" opacity="0.3" fill="#FF0000" font-family="Helvetica'" font-size="17">10</text>
<path opacity="0.3" fill="#FFFFFF" stroke="#000000" d="M841.5,328.801c0,4.805-3.895,8.699-8.699,8.699h-9.602
	c-4.805,0-8.699-3.895-8.699-8.699v-9.602c0-4.805,3.895-8.699,8.699-8.699h9.602c4.805,0,8.699,3.895,8.699,8.699V328.801z"/>
<text transform="matrix(1 0 0 1 818.5449 330)" opacity="0.3" fill="#FF0000" font-family="Helvetica'" font-size="17">11</text>
<g opacity="0.3">
	<path fill="none" stroke="#FF0000" d="M509.426,303.75c11.184-19.371,35.953-26.008,55.323-14.825
		c19.37,11.185,26.009,35.954,14.824,55.325c-11.184,19.371-35.953,26.008-55.325,14.823c-6.39-3.688-11.394-8.856-14.829-14.82"/>
	<path fill="#FF0000" d="M507.16,340.331c1.749,1.45,4.236,3.067,6.29,3.774l-3.734,0.662l-2.446,2.897
		C507.689,345.534,507.539,342.57,507.16,340.331z"/>
</g>
<g opacity="0.3">
	<path fill="none" stroke="#FF0000" d="M822.574,344.25c-11.184,19.371-35.953,26.008-55.323,14.825
		c-19.37-11.185-26.009-35.954-14.824-55.325c11.184-19.371,35.953-26.008,55.325-14.823c6.389,3.688,11.393,8.856,14.828,14.82"/>
	<path fill="#FF0000" d="M824.84,307.669c-1.748-1.45-4.236-3.067-6.289-3.774l3.733-0.662l2.446-2.897
		C824.311,302.466,824.461,305.43,824.84,307.669z"/>
</g>
<g opacity="0.3">
	<path fill="none" stroke="#FF0000" d="M504,303.75c0-54,141.75-54,141.75-54"/>
	<path fill="#FF0000" d="M650.276,249.75c-2.13,0.79-4.772,2.139-6.41,3.566l1.29-3.566l-1.29-3.566
		C645.504,247.611,648.146,248.961,650.276,249.75z"/>
</g>
<g opacity="0.3">
	<path fill="none" stroke="#FF0000" d="M686.25,249.75c0,0,141.75,0,141.75,54"/>
	<path fill="#FF0000" d="M828,308.276c-0.79-2.13-2.139-4.772-3.566-6.41l3.566,1.29l3.566-1.29
		C830.139,303.504,828.789,306.146,828,308.276z"/>
</g>
<g opacity="0.3">
	<path fill="none" stroke="#FF0000" d="M828,344.25c0,54-141.75,54-141.75,54"/>
	<path fill="#FF0000" d="M681.724,398.25c2.13-0.79,4.772-2.139,6.41-3.566l-1.29,3.566l1.29,3.566
		C686.496,400.389,683.854,399.04,681.724,398.25z"/>
</g>
<g opacity="0.3">
	<path fill="none" stroke="#FF0000" d="M645.75,398.25c0,0-141.75,0-141.75-54"/>
	<path fill="#FF0000" d="M504,339.724c0.79,2.13,2.139,4.772,3.566,6.41l-3.566-1.29l-3.566,1.29
		C501.861,344.496,503.21,341.854,504,339.724z"/>
</g>
<g opacity="0.3">
	<path fill="none" stroke="#FF0000" d="M686.25,256.5c14.912,0,27,30.221,27,67.5s-12.088,67.5-27,67.5"/>
	<path fill="#FF0000" d="M681.724,391.5c2.13-0.79,4.772-2.139,6.41-3.566l-1.29,3.566l1.29,3.566
		C686.496,393.639,683.854,392.29,681.724,391.5z"/>
</g>
<g opacity="0.3">
	<path fill="none" stroke="#FF0000" d="M645.75,391.5c-14.912,0-27-30.221-27-67.5s12.088-67.5,27-67.5"/>
	<path fill="#FF0000" d="M650.276,256.5c-2.13,0.79-4.772,2.139-6.41,3.566l1.29-3.566l-1.29-3.566
		C645.504,254.361,648.146,255.711,650.276,256.5z"/>
</g>
<path fill="#FFFFFF" stroke="#000000" d="M598.5,261.301c0,4.805-3.895,8.699-8.699,8.699h-23.102c-4.805,0-8.699-3.895-8.699-8.699
	v-9.602c0-4.805,3.895-8.699,8.699-8.699h23.102c4.805,0,8.699,3.895,8.699,8.699V261.301z"/>
<text transform="matrix(1 0 0 1 564.0684 262.5)" fill="#009900" font-family="Helvetica'" font-size="17">001</text>
<path fill="#FFFFFF" stroke="#000000" d="M774,261.301c0,4.805-3.895,8.699-8.699,8.699h-23.102c-4.805,0-8.699-3.895-8.699-8.699
	v-9.602c0-4.805,3.895-8.699,8.699-8.699h23.102c4.805,0,8.699,3.895,8.699,8.699V261.301z"/>
<text transform="matrix(1 0 0 1 739.5684 262.5)" fill="#009900" font-family="Helvetica'" font-size="17">011</text>
<path fill="#FFFFFF" stroke="#000000" d="M774,396.301c0,4.805-3.895,8.699-8.699,8.699h-23.102c-4.805,0-8.699-3.895-8.699-8.699
	v-9.602c0-4.805,3.895-8.699,8.699-8.699h23.102c4.805,0,8.699,3.895,8.699,8.699V396.301z"/>
<text transform="matrix(1 0 0 1 739.5684 397.5)" fill="#009900" font-family="Helvetica'" font-size="17">110</text>
<path fill="#FFFFFF" stroke="#000000" d="M598.5,396.301c0,4.805-3.895,8.699-8.699,8.699h-23.102c-4.805,0-8.699-3.895-8.699-8.699
	v-9.602c0-4.805,3.895-8.699,8.699-8.699h23.102c4.805,0,8.699,3.895,8.699,8.699V396.301z"/>
<text transform="matrix(1 0 0 1 564.0684 397.5)" fill="#009900" font-family="Helvetica'" font-size="17">100</text>
<path fill="#FFFFFF" stroke="#000000" d="M598.5,328.801c0,4.805-3.895,8.699-8.699,8.699h-23.102c-4.805,0-8.699-3.895-8.699-8.699
	v-9.602c0-4.805,3.895-8.699,8.699-8.699h23.102c4.805,0,8.699,3.895,8.699,8.699V328.801z"/>
<text transform="matrix(1 0 0 1 564.0684 330)" fill="#009900" font-family="Helvetica'" font-size="17">000</text>
<path fill="#FFFFFF" stroke="#000000" d="M645.75,328.801c0,4.805-3.895,8.699-8.699,8.699h-23.102
	c-4.805,0-8.699-3.895-8.699-8.699v-9.602c0-4.805,3.895-8.699,8.699-8.699h23.102c4.805,0,8.699,3.895,8.699,8.699V328.801z"/>
<text transform="matrix(1 0 0 1 611.3184 330)" fill="#009900" font-family="Helvetica'" font-size="17">101</text>
<path fill="#FFFFFF" stroke="#000000" d="M726.75,328.801c0,4.805-3.895,8.699-8.699,8.699h-23.102
	c-4.805,0-8.699-3.895-8.699-8.699v-9.602c0-4.805,3.895-8.699,8.699-8.699h23.102c4.805,0,8.699,3.895,8.699,8.699V328.801z"/>
<text transform="matrix(1 0 0 1 692.3184 330)" fill="#009900" font-family="Helvetica'" font-size="17">010</text>
<path fill="#FFFFFF" stroke="#000000" d="M774,328.801c0,4.805-3.895,8.699-8.699,8.699h-23.102c-4.805,0-8.699-3.895-8.699-8.699
	v-9.602c0-4.805,3.895-8.699,8.699-8.699h23.102c4.805,0,8.699,3.895,8.699,8.699V328.801z"/>
<text transform="matrix(1 0 0 1 739.5684 330)" fill="#009900" font-family="Helvetica'" font-size="17">111</text>
<g>
	<path fill="none" stroke="#009900" d="M570.342,343.092c-10.545,10.544-27.639,10.543-38.183,0
		c-10.544-10.545-10.544-27.64,0-38.184c10.545-10.545,27.64-10.544,38.184,0"/>
	<path fill="#009900" d="M573.543,308.108c-2.064-0.946-4.888-1.862-7.055-2.011l3.434-1.609l1.609-3.435
		C571.68,303.222,572.595,306.044,573.543,308.108z"/>
</g>
<g>
	<path fill="none" stroke="#009900" d="M761.658,304.908c10.545-10.544,27.639-10.543,38.184,0c10.543,10.545,10.544,27.64,0,38.184
		c-10.545,10.545-27.64,10.544-38.184,0"/>
	<path fill="#009900" d="M758.457,339.892c2.064,0.946,4.888,1.862,7.055,2.011l-3.434,1.609l-1.609,3.435
		C760.32,344.778,759.405,341.956,758.457,339.892z"/>
</g>
<g>
	<path fill="none" stroke="#009900" d="M551.25,391.5c-37.279,0-67.5-30.221-67.5-67.5s30.221-67.5,67.5-67.5"/>
	<path fill="#009900" d="M555.776,256.5c-2.13,0.79-4.772,2.139-6.41,3.566l1.29-3.566l-1.29-3.566
		C551.004,254.361,553.646,255.711,555.776,256.5z"/>
</g>
<g>
	<path fill="none" stroke="#009900" d="M780.75,256.5c37.279,0,67.5,30.221,67.5,67.5s-30.221,67.5-67.5,67.5"/>
	<path fill="#009900" d="M776.224,391.5c2.13-0.79,4.772-2.139,6.41-3.566l-1.29,3.566l1.29,3.566
		C780.996,393.639,778.354,392.289,776.224,391.5z"/>
</g>
<g>
	<path fill="none" stroke="#009900" d="M605.25,243c40.5-13.5,81-13.5,121.5,0"/>
	<path fill="#009900" stroke="#009900" d="M731.044,244.432c-2.271,0.076-5.204,0.52-7.209,1.355l2.352-2.975l-0.096-3.791
		C727.193,240.894,729.273,243.009,731.044,244.432z"/>
</g>
<g>
	<path fill="none" stroke="#009900" d="M728.794,407.787c-40.5,13.5-81,13.5-121.5,0"/>
	<path fill="#009900" stroke="#009900" d="M603,406.355c2.271-0.076,5.203-0.52,7.209-1.355l-2.352,2.975l0.096,3.791
		C606.851,409.894,604.771,407.778,603,406.355z"/>
</g>
<g>
	<path fill="none" stroke="#009900" d="M639,303.75c0-7.456,12.088-13.5,27-13.5s27,6.044,27,13.5"/>
	<path fill="#009900" d="M693,308.276c-0.79-2.13-2.139-4.772-3.566-6.41l3.566,1.29l3.566-1.29
		C695.139,303.504,693.789,306.146,693,308.276z"/>
</g>
<g>
	<path fill="none" stroke="#009900" d="M625.5,303.75c0-40.5,101.25-40.5,101.25-40.5"/>
	<path fill="#009900" d="M731.276,263.25c-2.13,0.79-4.772,2.139-6.41,3.566l1.29-3.566l-1.29-3.566
		C726.504,261.111,729.146,262.461,731.276,263.25z"/>
</g>
<g>
	<path fill="none" stroke="#009900" d="M605.25,263.25c0,0,101.25,0,101.25,40.5"/>
	<path fill="#009900" d="M706.5,308.276c-0.79-2.13-2.139-4.772-3.566-6.41l3.566,1.29l3.566-1.29
		C708.639,303.504,707.289,306.146,706.5,308.276z"/>
</g>
<g>
	<path fill="none" stroke="#009900" d="M693,344.25c0,7.456-12.088,13.5-27,13.5s-27-6.044-27-13.5"/>
	<path fill="#009900" d="M639,339.724c0.79,2.13,2.139,4.772,3.566,6.41l-3.566-1.29l-3.566,1.29
		C636.861,344.496,638.211,341.854,639,339.724z"/>
</g>
<g>
	<path fill="none" stroke="#009900" d="M706.5,344.25c0,40.5-101.25,40.5-101.25,40.5"/>
	<path fill="#009900" d="M600.724,384.75c2.13-0.79,4.772-2.139,6.41-3.566l-1.29,3.566l1.29,3.566
		C605.496,386.889,602.854,385.539,600.724,384.75z"/>
</g>
<g>
	<path fill="none" stroke="#009900" d="M726.75,384.75c0,0-101.25,0-101.25-40.5"/>
	<path fill="#009900" d="M625.5,339.724c0.79,2.13,2.139,4.772,3.566,6.41l-3.566-1.29l-3.566,1.29
		C623.361,344.496,624.711,341.854,625.5,339.724z"/>
</g>
<g>
	<path fill="none" stroke="#009900" d="M551.25,317.25c-11.184,0-20.25-12.089-20.25-27s9.066-27,20.25-27"/>
	<path fill="#009900" d="M555.776,263.25c-2.13,0.79-4.772,2.139-6.41,3.566l1.29-3.566l-1.29-3.566
		C551.004,261.111,553.646,262.461,555.776,263.25z"/>
</g>
<g>
	<path fill="none" stroke="#009900" d="M551.25,384.75c-11.184,0-20.25-12.089-20.25-27s9.066-27,20.25-27"/>
	<path fill="#009900" d="M555.776,330.75c-2.13,0.79-4.772,2.139-6.41,3.566l1.29-3.566l-1.29-3.566
		C551.004,328.611,553.646,329.961,555.776,330.75z"/>
</g>
<g>
	<path fill="none" stroke="#009900" d="M761.658,304.908c10.545-10.544,27.639-10.543,38.184,0c10.543,10.545,10.544,27.64,0,38.184
		c-10.545,10.545-27.64,10.544-38.184,0"/>
	<path fill="#009900" d="M758.457,339.892c2.064,0.946,4.888,1.862,7.055,2.011l-3.434,1.609l-1.609,3.435
		C760.32,344.778,759.405,341.956,758.457,339.892z"/>
</g>
<g>
	<path fill="none" stroke="#009900" d="M780.75,330.75c11.184,0,20.25,12.089,20.25,27s-9.066,27-20.25,27"/>
	<path fill="#009900" d="M776.224,384.75c2.13-0.79,4.772-2.139,6.41-3.566l-1.29,3.566l1.29,3.566
		C780.996,386.889,778.354,385.539,776.224,384.75z"/>
</g>
<g>
	<path fill="none" stroke="#009900" d="M780.75,263.25c11.184,0,20.25,12.089,20.25,27s-9.066,27-20.25,27"/>
	<path fill="#009900" d="M776.224,317.25c2.13-0.79,4.772-2.139,6.41-3.566l-1.29,3.566l1.29,3.566
		C780.996,319.389,778.354,318.039,776.224,317.25z"/>
</g>
<path fill="#FFFFFF" stroke="#000000" d="M686.25,45.301c0,4.804-3.895,8.699-8.699,8.699h-23.102c-4.805,0-8.699-3.895-8.699-8.699
	v-9.602c0-4.804,3.895-8.699,8.699-8.699h23.102c4.805,0,8.699,3.895,8.699,8.699V45.301z"/>
<text transform="matrix(1 0 0 1 651.8184 46.5)" fill="#009900" font-family="Helvetica'" font-size="17">001</text>
<path fill="#FFFFFF" stroke="#000000" d="M861.75,45.301c0,4.804-3.895,8.699-8.699,8.699h-23.102c-4.805,0-8.699-3.895-8.699-8.699
	v-9.602c0-4.804,3.895-8.699,8.699-8.699h23.102c4.805,0,8.699,3.895,8.699,8.699V45.301z"/>
<text transform="matrix(1 0 0 1 827.3184 46.5)" fill="#009900" font-family="Helvetica'" font-size="17">011</text>
<path fill="#FFFFFF" stroke="#000000" d="M861.75,180.301c0,4.804-3.895,8.699-8.699,8.699h-23.102
	c-4.805,0-8.699-3.895-8.699-8.699v-9.602c0-4.804,3.895-8.699,8.699-8.699h23.102c4.805,0,8.699,3.895,8.699,8.699V180.301z"/>
<text transform="matrix(1 0 0 1 827.3184 181.5)" fill="#009900" font-family="Helvetica'" font-size="17">110</text>
<path fill="#FFFFFF" stroke="#000000" d="M686.25,180.301c0,4.804-3.895,8.699-8.699,8.699h-23.102
	c-4.805,0-8.699-3.895-8.699-8.699v-9.602c0-4.804,3.895-8.699,8.699-8.699h23.102c4.805,0,8.699,3.895,8.699,8.699V180.301z"/>
<text transform="matrix(1 0 0 1 651.8184 181.5)" fill="#009900" font-family="Helvetica'" font-size="17">100</text>
<path fill="#FFFFFF" stroke="#000000" d="M686.25,112.801c0,4.804-3.895,8.699-8.699,8.699h-23.102
	c-4.805,0-8.699-3.895-8.699-8.699v-9.602c0-4.804,3.895-8.699,8.699-8.699h23.102c4.805,0,8.699,3.895,8.699,8.699V112.801z"/>
<text transform="matrix(1 0 0 1 651.8184 114)" fill="#009900" font-family="Helvetica'" font-size="17">000</text>
<path fill="#FFFFFF" stroke="#000000" d="M733.5,112.801c0,4.804-3.895,8.699-8.699,8.699h-23.102c-4.805,0-8.699-3.895-8.699-8.699
	v-9.602c0-4.804,3.895-8.699,8.699-8.699h23.102c4.805,0,8.699,3.895,8.699,8.699V112.801z"/>
<text transform="matrix(1 0 0 1 699.0684 114)" fill="#009900" font-family="Helvetica'" font-size="17">101</text>
<path fill="#FFFFFF" stroke="#000000" d="M814.5,112.801c0,4.804-3.895,8.699-8.699,8.699h-23.102c-4.805,0-8.699-3.895-8.699-8.699
	v-9.602c0-4.804,3.895-8.699,8.699-8.699h23.102c4.805,0,8.699,3.895,8.699,8.699V112.801z"/>
<text transform="matrix(1 0 0 1 780.0684 114)" fill="#009900" font-family="Helvetica'" font-size="17">010</text>
<path fill="#FFFFFF" stroke="#000000" d="M861.75,112.801c0,4.804-3.895,8.699-8.699,8.699h-23.102
	c-4.805,0-8.699-3.895-8.699-8.699v-9.602c0-4.804,3.895-8.699,8.699-8.699h23.102c4.805,0,8.699,3.895,8.699,8.699V112.801z"/>
<text transform="matrix(1 0 0 1 827.3184 114)" fill="#009900" font-family="Helvetica'" font-size="17">111</text>
<g>
	<path fill="none" stroke="#009900" d="M658.092,127.091c-10.545,10.544-27.639,10.544-38.184,0
		c-10.543-10.544-10.544-27.639,0-38.183c10.545-10.545,27.64-10.544,38.184,0"/>
	<path fill="#009900" d="M661.293,92.108c-2.064-0.947-4.888-1.862-7.055-2.011l3.434-1.609l1.609-3.435
		C659.43,87.222,660.345,90.044,661.293,92.108z"/>
</g>
<g>
	<path fill="none" stroke="#009900" d="M849.408,88.909c10.545-10.544,27.639-10.544,38.184,0c10.543,10.544,10.544,27.639,0,38.183
		c-10.545,10.545-27.64,10.544-38.184,0"/>
	<path fill="#009900" d="M846.207,123.892c2.064,0.947,4.888,1.862,7.055,2.011l-3.434,1.609l-1.609,3.435
		C848.07,128.778,847.155,125.956,846.207,123.892z"/>
</g>
<g>
	<path fill="none" stroke="#009900" d="M639,175.5c-37.279,0-67.5-30.221-67.5-67.5s30.221-67.5,67.5-67.5"/>
	<path fill="#009900" d="M643.526,40.5c-2.13,0.79-4.772,2.139-6.41,3.566l1.29-3.566l-1.29-3.566
		C638.754,38.361,641.396,39.71,643.526,40.5z"/>
</g>
<g>
	<path fill="none" stroke="#009900" d="M868.5,40.5c37.279,0,67.5,30.221,67.5,67.5s-30.221,67.5-67.5,67.5"/>
	<path fill="#009900" d="M863.974,175.5c2.13-0.79,4.772-2.139,6.41-3.566l-1.29,3.566l1.29,3.566
		C868.746,177.639,866.104,176.29,863.974,175.5z"/>
</g>
<g>
	<path fill="none" stroke="#009900" d="M693,27c40.5-13.5,81-13.5,121.5,0"/>
	<path fill="#009900" stroke="#009900" d="M818.794,28.431c-2.271,0.076-5.204,0.52-7.209,1.356l2.352-2.975l-0.096-3.791
		C814.943,24.894,817.023,27.009,818.794,28.431z"/>
</g>
<g>
	<path fill="none" stroke="#009900" d="M814.5,189c-40.5,13.5-81,13.5-121.5,0"/>
	<path fill="#009900" stroke="#009900" d="M688.706,187.569c2.271-0.076,5.204-0.52,7.209-1.356l-2.352,2.975l0.096,3.791
		C692.557,191.106,690.477,188.991,688.706,187.569z"/>
</g>
<g>
	<path fill="none" stroke="#009900" d="M726.75,87.75c0-7.456,12.088-13.5,27-13.5s27,6.044,27,13.5"/>
	<path fill="#009900" d="M780.75,92.276c-0.79-2.13-2.139-4.772-3.566-6.41l3.566,1.29l3.566-1.29
		C782.889,87.504,781.539,90.146,780.75,92.276z"/>
</g>
<g>
	<path fill="none" stroke="#009900" d="M713.25,87.75c0-40.5,101.25-40.5,101.25-40.5"/>
	<path fill="#009900" d="M819.026,47.25c-2.13,0.79-4.772,2.139-6.41,3.566l1.29-3.566l-1.29-3.566
		C814.254,45.111,816.896,46.46,819.026,47.25z"/>
</g>
<g>
	<path fill="none" stroke="#009900" d="M693,47.25c0,0,101.25,0,101.25,40.5"/>
	<path fill="#009900" d="M794.25,92.276c-0.79-2.13-2.139-4.772-3.566-6.41l3.566,1.29l3.566-1.29
		C796.389,87.504,795.039,90.146,794.25,92.276z"/>
</g>
<g>
	<path fill="none" stroke="#009900" d="M780.75,128.25c0,7.456-12.088,13.5-27,13.5s-27-6.044-27-13.5"/>
	<path fill="#009900" d="M726.75,123.724c0.79,2.13,2.139,4.772,3.566,6.41l-3.566-1.29l-3.566,1.29
		C724.611,128.496,725.961,125.854,726.75,123.724z"/>
</g>
<g>
	<path fill="none" stroke="#009900" d="M794.25,128.25c0,40.5-101.25,40.5-101.25,40.5"/>
	<path fill="#009900" d="M688.474,168.75c2.13-0.79,4.772-2.139,6.41-3.566l-1.29,3.566l1.29,3.566
		C693.246,170.889,690.604,169.54,688.474,168.75z"/>
</g>
<g>
	<path fill="none" stroke="#009900" d="M814.5,168.75c0,0-101.25,0-101.25-40.5"/>
	<path fill="#009900" d="M713.25,123.724c0.79,2.13,2.139,4.772,3.566,6.41l-3.566-1.29l-3.566,1.29
		C711.111,128.496,712.461,125.854,713.25,123.724z"/>
</g>
<g>
	<path fill="none" stroke="#009900" d="M639,101.25c-11.184,0-20.25-12.089-20.25-27s9.066-27,20.25-27"/>
	<path fill="#009900" d="M643.526,47.25c-2.13,0.79-4.772,2.139-6.41,3.566l1.29-3.566l-1.29-3.566
		C638.754,45.111,641.396,46.46,643.526,47.25z"/>
</g>
<g>
	<path fill="none" stroke="#009900" d="M639,168.75c-11.184,0-20.25-12.089-20.25-27s9.066-27,20.25-27"/>
	<path fill="#009900" d="M643.526,114.75c-2.13,0.79-4.772,2.139-6.41,3.566l1.29-3.566l-1.29-3.566
		C638.754,112.611,641.396,113.96,643.526,114.75z"/>
</g>
<g>
	<path fill="none" stroke="#009900" d="M849.408,88.909c10.545-10.544,27.639-10.544,38.184,0c10.543,10.544,10.544,27.639,0,38.183
		c-10.545,10.545-27.64,10.544-38.184,0"/>
	<path fill="#009900" d="M846.207,123.892c2.064,0.947,4.888,1.862,7.055,2.011l-3.434,1.609l-1.609,3.435
		C848.07,128.778,847.155,125.956,846.207,123.892z"/>
</g>
<g>
	<path fill="none" stroke="#009900" d="M868.5,114.75c11.184,0,20.25,12.089,20.25,27s-9.066,27-20.25,27"/>
	<path fill="#009900" d="M863.974,168.75c2.13-0.79,4.772-2.139,6.41-3.566l-1.29,3.566l1.29,3.566
		C868.746,170.889,866.104,169.54,863.974,168.75z"/>
</g>
<g>
	<path fill="none" stroke="#009900" d="M868.5,47.25c11.184,0,20.25,12.089,20.25,27s-9.066,27-20.25,27"/>
	<path fill="#009900" d="M863.974,101.25c2.13-0.79,4.772-2.139,6.41-3.566l-1.29,3.566l1.29,3.566
		C868.746,103.389,866.104,102.04,863.974,101.25z"/>
</g>
<g>
	<path fill="none" stroke="#CCCCCC" stroke-width="15" d="M72,169.192c-33.75,47.25-13.5,101.25,20.25,114.75"/>
	<path fill="#CCCCCC" d="M113.263,292.348c-11.355-0.286-26.127,1.066-36.381,4.652l12.61-14.16l0.635-18.951
		C95.079,273.557,104.842,284.726,113.263,292.348z"/>
</g>
<g>
	<path fill="none" stroke="#CCCCCC" stroke-width="15" d="M240.75,418.5C207,465.75,227.25,519.75,261,533.25"/>
	<path fill="#CCCCCC" d="M282.013,541.655c-11.355-0.286-26.127,1.066-36.381,4.652l12.61-14.161l0.635-18.95
		C263.829,522.864,273.592,534.033,282.013,541.655z"/>
</g>
<g>
	<path fill="none" stroke="#CCCCCC" stroke-width="15" d="M700.579,541.512c57.275-9.547,81.141-62.049,66.821-95.459"/>
	<path fill="#CCCCCC" d="M758.485,425.25c7.827,8.232,19.229,17.721,29.015,22.436l-18.93,1.097l-13.849,12.952
		C758.057,451.396,759.051,436.596,758.485,425.25z"/>
</g>
<g>
	<path fill="none" stroke="#CCCCCC" stroke-width="15" d="M862.579,291.762c57.275-9.547,81.141-62.049,66.821-95.459"/>
	<path fill="#CCCCCC" d="M920.485,175.5c7.827,8.232,19.229,17.721,29.015,22.436l-18.93,1.097l-13.849,12.952
		C920.057,201.646,921.051,186.845,920.485,175.5z"/>
</g>
</svg>
