<?xml version="1.0" standalone="no"?>
<!DOCTYPE svg PUBLIC "-//W3C//DTD SVG 1.1//EN"
  "http://www.w3.org/Graphics/SVG/1.1/DTD/svg11.dtd">
<!-- Created with matplotlib (http://matplotlib.sourceforge.net/) -->
<svg width="288pt" height="230pt" viewBox="0 0 288 230"
   xmlns="http://www.w3.org/2000/svg"
   xmlns:xlink="http://www.w3.org/1999/xlink"
   version="1.1"
   id="svg1">
<g id="figure1">
<g id="patch1">
<path style="fill: #ffffff; stroke: #ffffff; stroke-width: 1.000000; stroke-linejoin: round; stroke-linecap: square;  opacity: 1.000000"  d="M0.000000 230.400000L288.000000 230.400000L288.000000 0.000000
L0.000000 0.000000L0.000000 230.400000"/>
</g>
<g id="axes1">
<g id="patch2">
<path style="fill: #ffffff; opacity: 1.000000"  d="M43.200000 200.448000L270.720000 200.448000L270.720000 16.128000
L43.200000 16.128000L43.200000 200.448000"/>
</g>
<g id="line2d1">
<defs>
  <clipPath id="pdd398dea377bec1d76495e34704e6890">
<rect x="43.200000" y="16.128000" width="227.520000" height="184.320000"/>
  </clipPath>
</defs><path style="fill: none; stroke: #ffa500; stroke-width: 2.500000; stroke-linejoin: round; stroke-linecap: square;  opacity: 1.000000" clip-path="url(#pdd398dea377bec1d76495e34704e6890)" d="M43.200000 142.848000L54.120960 149.361383L65.041920 155.138235
L77.328000 160.860138L89.614080 165.859455L103.265280 170.677363
L118.281600 175.205664L133.297920 179.045183L149.679360 182.570864
L167.425920 185.738073L187.902720 188.701885L211.109760 191.345742
L237.047040 193.602972L267.079680 195.526947L269.809920 195.672386
L269.809920 195.672386"/>
</g>
<g id="line2d2">
<path style="fill: none; stroke: #800080; stroke-width: 2.500000; stroke-linejoin: round; stroke-linecap: square;  opacity: 1.000000" clip-path="url(#pdd398dea377bec1d76495e34704e6890)" d="M43.200000 85.248000L49.115520 99.291406L55.031040 111.622857
L61.401600 123.227131L67.772160 133.315401L74.142720 142.085722
L80.513280 149.710273L86.883840 156.338740L93.709440 162.482808
L100.535040 167.771056L107.360640 172.322694L115.551360 176.955770
L123.742080 180.825640L133.297920 184.542424L142.853760 187.555191
L153.774720 190.306157L166.060800 192.705925L179.712000 194.712530
L196.093440 196.446498L216.570240 197.896530L242.507520 199.005079
L269.809920 199.656108L269.809920 199.656108"/>
</g>
<g id="line2d3">
<path style="fill: none; stroke: #add8e6; stroke-width: 2.500000; stroke-linejoin: round; stroke-linecap: square;  opacity: 1.000000" clip-path="url(#pdd398dea377bec1d76495e34704e6890)" d="M43.200000 27.648000L47.750400 51.717662L52.300800 72.434611
L56.851200 90.265855L61.401600 105.613349L65.952000 118.823060
L70.502400 130.192763L75.507840 140.879027L80.058240 149.176510
L85.518720 157.622451L90.979200 164.677095L95.529600 169.659697
L100.990080 174.731447L106.450560 178.967730L113.276160 183.295656
L120.101760 186.751575L126.927360 189.511182L135.118080 192.099058
L144.673920 194.355035L155.594880 196.197082L169.246080 197.737495
L185.627520 198.868458L207.469440 199.679154L241.597440 200.198392
L270.264960 200.350983L270.264960 200.350983"/>
</g>
<g id="matplotlib.axis1">
<g id="xtick1">
<g id="line2d4">
<defs><path id="m30e32995789d870ad79a2e54c91cf9c6" d="M0.000000 0.000000L0.000000 -4.000000"/></defs>
<g ><use style="fill: none; stroke: #000000; stroke-width: 0.500000; stroke-linejoin: round; stroke-linecap: butt;  opacity: 1.000000" xlink:href="#m30e32995789d870ad79a2e54c91cf9c6" x="43.200000" y="200.448000"/>
</g></g>
<g id="line2d5">
<defs><path id="m9281cae24120827b11d5ea8a7ad3e96b" d="M0.000000 0.000000L0.000000 4.000000"/></defs>
<g ><use style="fill: none; stroke: #000000; stroke-width: 0.500000; stroke-linejoin: round; stroke-linecap: butt;  opacity: 1.000000" xlink:href="#m9281cae24120827b11d5ea8a7ad3e96b" x="43.200000" y="16.128000"/>
</g></g>
<g id="text1">
<defs>
<path id="c_7a2040fe3b94fcd41d0a72c84e93b115" d="M31.781250 -66.406250q-7.609375 0.000000 -11.453125 7.500000q-3.828125 7.484375 -3.828125 22.531250q0.000000 14.984375 3.828125 22.484375q3.843750 7.500000 11.453125 7.500000q7.671875 0.000000 11.500000 -7.500000q3.843750 -7.500000 3.843750 -22.484375q0.000000 -15.046875 -3.843750 -22.531250q-3.828125 -7.500000 -11.500000 -7.500000M31.781250 -74.218750q12.265625 0.000000 18.734375 9.703125q6.468750 9.687500 6.468750 28.140625q0.000000 18.406250 -6.468750 28.109375q-6.468750 9.687500 -18.734375 9.687500q-12.250000 0.000000 -18.718750 -9.687500q-6.468750 -9.703125 -6.468750 -28.109375q0.000000 -18.453125 6.468750 -28.140625q6.468750 -9.703125 18.718750 -9.703125"/>
</defs>
<g style="fill: #000000; opacity: 1.000000" transform="translate(40.176562,213.354250)scale(0.120000)">
<use xlink:href="#c_7a2040fe3b94fcd41d0a72c84e93b115"/>
</g>
</g>
</g>
<g id="xtick2">
<g id="line2d6">
<g ><use style="fill: none; stroke: #000000; stroke-width: 0.500000; stroke-linejoin: round; stroke-linecap: butt;  opacity: 1.000000" xlink:href="#m30e32995789d870ad79a2e54c91cf9c6" x="88.704000" y="200.448000"/>
</g></g>
<g id="line2d7">
<g ><use style="fill: none; stroke: #000000; stroke-width: 0.500000; stroke-linejoin: round; stroke-linecap: butt;  opacity: 1.000000" xlink:href="#m9281cae24120827b11d5ea8a7ad3e96b" x="88.704000" y="16.128000"/>
</g></g>
<g id="text2">
<defs>
<path id="c_42baa63129a918535c52adb20d687ea7" d="M12.406250 -8.296875l16.109375 0.000000l0.000000 -55.625000l-17.531250 3.515625l0.000000 -8.984375l17.437500 -3.515625l9.859375 0.000000l0.000000 64.609375l16.109375 0.000000l0.000000 8.296875l-41.984375 0.000000z"/>
</defs>
<g style="fill: #000000; opacity: 1.000000" transform="translate(86.094625,213.198000)scale(0.120000)">
<use xlink:href="#c_42baa63129a918535c52adb20d687ea7"/>
</g>
</g>
</g>
<g id="xtick3">
<g id="line2d8">
<g ><use style="fill: none; stroke: #000000; stroke-width: 0.500000; stroke-linejoin: round; stroke-linecap: butt;  opacity: 1.000000" xlink:href="#m30e32995789d870ad79a2e54c91cf9c6" x="134.208000" y="200.448000"/>
</g></g>
<g id="line2d9">
<g ><use style="fill: none; stroke: #000000; stroke-width: 0.500000; stroke-linejoin: round; stroke-linecap: butt;  opacity: 1.000000" xlink:href="#m9281cae24120827b11d5ea8a7ad3e96b" x="134.208000" y="16.128000"/>
</g></g>
<g id="text3">
<defs>
<path id="c_ed3f3ed3ebfbd18bcb9c012009a68ad1" d="M19.187500 -8.296875l34.421875 0.000000l0.000000 8.296875l-46.281250 0.000000l0.000000 -8.296875q5.609375 -5.812500 15.296875 -15.593750q9.703125 -9.796875 12.187500 -12.640625q4.734375 -5.312500 6.609375 -9.000000q1.890625 -3.687500 1.890625 -7.250000q0.000000 -5.812500 -4.078125 -9.468750q-4.078125 -3.671875 -10.625000 -3.671875q-4.640625 0.000000 -9.796875 1.609375q-5.140625 1.609375 -11.000000 4.890625l0.000000 -9.968750q5.953125 -2.390625 11.125000 -3.609375q5.187500 -1.218750 9.484375 -1.218750q11.328125 0.000000 18.062500 5.671875q6.734375 5.656250 6.734375 15.125000q0.000000 4.500000 -1.687500 8.531250q-1.671875 4.015625 -6.125000 9.484375q-1.218750 1.421875 -7.765625 8.187500q-6.531250 6.765625 -18.453125 18.921875"/>
</defs>
<g style="fill: #000000; opacity: 1.000000" transform="translate(131.426750,213.354250)scale(0.120000)">
<use xlink:href="#c_ed3f3ed3ebfbd18bcb9c012009a68ad1"/>
</g>
</g>
</g>
<g id="xtick4">
<g id="line2d10">
<g ><use style="fill: none; stroke: #000000; stroke-width: 0.500000; stroke-linejoin: round; stroke-linecap: butt;  opacity: 1.000000" xlink:href="#m30e32995789d870ad79a2e54c91cf9c6" x="179.712000" y="200.448000"/>
</g></g>
<g id="line2d11">
<g ><use style="fill: none; stroke: #000000; stroke-width: 0.500000; stroke-linejoin: round; stroke-linecap: butt;  opacity: 1.000000" xlink:href="#m9281cae24120827b11d5ea8a7ad3e96b" x="179.712000" y="16.128000"/>
</g></g>
<g id="text4">
<defs>
<path id="c_3dcfa38a02242cb63ec6726c6e70be7a" d="M40.578125 -39.312500q7.078125 1.515625 11.046875 6.312500q3.984375 4.781250 3.984375 11.812500q0.000000 10.781250 -7.421875 16.703125q-7.421875 5.906250 -21.093750 5.906250q-4.578125 0.000000 -9.437500 -0.906250q-4.859375 -0.906250 -10.031250 -2.718750l0.000000 -9.515625q4.093750 2.390625 8.968750 3.609375q4.890625 1.218750 10.218750 1.218750q9.265625 0.000000 14.125000 -3.656250q4.859375 -3.656250 4.859375 -10.640625q0.000000 -6.453125 -4.515625 -10.078125q-4.515625 -3.640625 -12.562500 -3.640625l-8.500000 0.000000l0.000000 -8.109375l8.890625 0.000000q7.265625 0.000000 11.125000 -2.906250q3.859375 -2.906250 3.859375 -8.375000q0.000000 -5.609375 -3.984375 -8.609375q-3.968750 -3.015625 -11.390625 -3.015625q-4.062500 0.000000 -8.703125 0.890625q-4.640625 0.875000 -10.203125 2.718750l0.000000 -8.781250q5.625000 -1.562500 10.531250 -2.343750q4.906250 -0.781250 9.250000 -0.781250q11.234375 0.000000 17.765625 5.109375q6.546875 5.093750 6.546875 13.781250q0.000000 6.062500 -3.468750 10.234375q-3.468750 4.171875 -9.859375 5.781250"/>
</defs>
<g style="fill: #000000; opacity: 1.000000" transform="translate(176.837000,213.354250)scale(0.120000)">
<use xlink:href="#c_3dcfa38a02242cb63ec6726c6e70be7a"/>
</g>
</g>
</g>
<g id="xtick5">
<g id="line2d12">
<g ><use style="fill: none; stroke: #000000; stroke-width: 0.500000; stroke-linejoin: round; stroke-linecap: butt;  opacity: 1.000000" xlink:href="#m30e32995789d870ad79a2e54c91cf9c6" x="225.216000" y="200.448000"/>
</g></g>
<g id="line2d13">
<g ><use style="fill: none; stroke: #000000; stroke-width: 0.500000; stroke-linejoin: round; stroke-linecap: butt;  opacity: 1.000000" xlink:href="#m9281cae24120827b11d5ea8a7ad3e96b" x="225.216000" y="16.128000"/>
</g></g>
<g id="text5">
<defs>
<path id="c_a0416418d96557a09b8c1332d34883ba" d="M37.796875 -64.312500l-24.906250 38.921875l24.906250 0.000000zM35.203125 -72.906250l12.406250 0.000000l0.000000 47.515625l10.406250 0.000000l0.000000 8.203125l-10.406250 0.000000l0.000000 17.187500l-9.812500 0.000000l0.000000 -17.187500l-32.906250 0.000000l0.000000 -9.515625z"/>
</defs>
<g style="fill: #000000; opacity: 1.000000" transform="translate(222.028500,213.198000)scale(0.120000)">
<use xlink:href="#c_a0416418d96557a09b8c1332d34883ba"/>
</g>
</g>
</g>
<g id="xtick6">
<g id="line2d14">
<g ><use style="fill: none; stroke: #000000; stroke-width: 0.500000; stroke-linejoin: round; stroke-linecap: butt;  opacity: 1.000000" xlink:href="#m30e32995789d870ad79a2e54c91cf9c6" x="270.720000" y="200.448000"/>
</g></g>
<g id="line2d15">
<g ><use style="fill: none; stroke: #000000; stroke-width: 0.500000; stroke-linejoin: round; stroke-linecap: butt;  opacity: 1.000000" xlink:href="#m9281cae24120827b11d5ea8a7ad3e96b" x="270.720000" y="16.128000"/>
</g></g>
<g id="text6">
<defs>
<path id="c_1260a2df50f305f3db244e29828f968e" d="M10.796875 -72.906250l38.718750 0.000000l0.000000 8.312500l-29.687500 0.000000l0.000000 17.859375q2.140625 -0.734375 4.281250 -1.093750q2.156250 -0.359375 4.312500 -0.359375q12.203125 0.000000 19.328125 6.687500q7.140625 6.687500 7.140625 18.109375q0.000000 11.765625 -7.328125 18.296875q-7.328125 6.515625 -20.656250 6.515625q-4.593750 0.000000 -9.359375 -0.781250q-4.750000 -0.781250 -9.828125 -2.343750l0.000000 -9.921875q4.390625 2.390625 9.078125 3.562500q4.687500 1.171875 9.906250 1.171875q8.453125 0.000000 13.375000 -4.437500q4.937500 -4.437500 4.937500 -12.062500q0.000000 -7.609375 -4.937500 -12.046875q-4.921875 -4.453125 -13.375000 -4.453125q-3.953125 0.000000 -7.890625 0.875000q-3.921875 0.875000 -8.015625 2.734375z"/>
</defs>
<g style="fill: #000000; opacity: 1.000000" transform="translate(267.884063,213.198000)scale(0.120000)">
<use xlink:href="#c_1260a2df50f305f3db244e29828f968e"/>
</g>
</g>
</g>
<g id="text7">
<defs>
<path id="c_801fe2e877fad46da27c898b407b3b54" d="M54.890625 -54.687500l-19.781250 26.609375l20.796875 28.078125l-10.593750 0.000000l-15.921875 -21.484375l-15.906250 21.484375l-10.609375 0.000000l21.250000 -28.609375l-19.437500 -26.078125l10.593750 0.000000l14.500000 19.484375l14.500000 -19.484375z"/>
</defs>
<g style="fill: #000000; opacity: 1.000000" transform="translate(153.780313,225.088625)scale(0.120000)">
<use xlink:href="#c_801fe2e877fad46da27c898b407b3b54"/>
</g>
</g>
</g>
<g id="matplotlib.axis2">
<g id="ytick1">
<g id="line2d16">
<defs><path id="m3400efa6b1638b3fea9e19e898273957" d="M0.000000 0.000000L4.000000 0.000000"/></defs>
<g ><use style="fill: none; stroke: #000000; stroke-width: 0.500000; stroke-linejoin: round; stroke-linecap: butt;  opacity: 1.000000" xlink:href="#m3400efa6b1638b3fea9e19e898273957" x="43.200000" y="200.448000"/>
</g></g>
<g id="line2d17">
<defs><path id="m20b58b2501143cb5e0a5e8f1ef6f1643" d="M0.000000 0.000000L-4.000000 0.000000"/></defs>
<g ><use style="fill: none; stroke: #000000; stroke-width: 0.500000; stroke-linejoin: round; stroke-linecap: butt;  opacity: 1.000000" xlink:href="#m20b58b2501143cb5e0a5e8f1ef6f1643" x="270.720000" y="200.448000"/>
</g></g>
<g id="text8">
<defs>
<path id="c_ed3e21196fb739f392806f09ca0594ef" d="M10.687500 -12.406250l10.312500 0.000000l0.000000 12.406250l-10.312500 0.000000z"/>
</defs>
<g style="fill: #000000; opacity: 1.000000" transform="translate(21.700000,204.815188)scale(0.120000)">
<use xlink:href="#c_7a2040fe3b94fcd41d0a72c84e93b115"/>
<use xlink:href="#c_ed3e21196fb739f392806f09ca0594ef" x="63.623047"/>
<use xlink:href="#c_7a2040fe3b94fcd41d0a72c84e93b115" x="95.410156"/>
</g>
</g>
</g>
<g id="ytick2">
<g id="line2d18">
<g ><use style="fill: none; stroke: #000000; stroke-width: 0.500000; stroke-linejoin: round; stroke-linecap: butt;  opacity: 1.000000" xlink:href="#m3400efa6b1638b3fea9e19e898273957" x="43.200000" y="177.408000"/>
</g></g>
<g id="line2d19">
<g ><use style="fill: none; stroke: #000000; stroke-width: 0.500000; stroke-linejoin: round; stroke-linecap: butt;  opacity: 1.000000" xlink:href="#m20b58b2501143cb5e0a5e8f1ef6f1643" x="270.720000" y="177.408000"/>
</g></g>
<g id="text9">
<g style="fill: #000000; opacity: 1.000000" transform="translate(22.106250,181.775188)scale(0.120000)">
<use xlink:href="#c_7a2040fe3b94fcd41d0a72c84e93b115"/>
<use xlink:href="#c_ed3e21196fb739f392806f09ca0594ef" x="63.623047"/>
<use xlink:href="#c_ed3f3ed3ebfbd18bcb9c012009a68ad1" x="95.410156"/>
</g>
</g>
</g>
<g id="ytick3">
<g id="line2d20">
<g ><use style="fill: none; stroke: #000000; stroke-width: 0.500000; stroke-linejoin: round; stroke-linecap: butt;  opacity: 1.000000" xlink:href="#m3400efa6b1638b3fea9e19e898273957" x="43.200000" y="154.368000"/>
</g></g>
<g id="line2d21">
<g ><use style="fill: none; stroke: #000000; stroke-width: 0.500000; stroke-linejoin: round; stroke-linecap: butt;  opacity: 1.000000" xlink:href="#m20b58b2501143cb5e0a5e8f1ef6f1643" x="270.720000" y="154.368000"/>
</g></g>
<g id="text10">
<g style="fill: #000000; opacity: 1.000000" transform="translate(21.575000,158.735187)scale(0.120000)">
<use xlink:href="#c_7a2040fe3b94fcd41d0a72c84e93b115"/>
<use xlink:href="#c_ed3e21196fb739f392806f09ca0594ef" x="63.623047"/>
<use xlink:href="#c_a0416418d96557a09b8c1332d34883ba" x="95.410156"/>
</g>
</g>
</g>
<g id="ytick4">
<g id="line2d22">
<g ><use style="fill: none; stroke: #000000; stroke-width: 0.500000; stroke-linejoin: round; stroke-linecap: butt;  opacity: 1.000000" xlink:href="#m3400efa6b1638b3fea9e19e898273957" x="43.200000" y="131.328000"/>
</g></g>
<g id="line2d23">
<g ><use style="fill: none; stroke: #000000; stroke-width: 0.500000; stroke-linejoin: round; stroke-linecap: butt;  opacity: 1.000000" xlink:href="#m20b58b2501143cb5e0a5e8f1ef6f1643" x="270.720000" y="131.328000"/>
</g></g>
<g id="text11">
<defs>
<path id="c_cc8d6d580d1b10c8632f7a42cd53db8a" d="M33.015625 -40.375000q-6.640625 0.000000 -10.531250 4.546875q-3.875000 4.531250 -3.875000 12.437500q0.000000 7.859375 3.875000 12.437500q3.890625 4.562500 10.531250 4.562500q6.640625 0.000000 10.515625 -4.562500q3.875000 -4.578125 3.875000 -12.437500q0.000000 -7.906250 -3.875000 -12.437500q-3.875000 -4.546875 -10.515625 -4.546875M52.593750 -71.296875l0.000000 8.984375q-3.718750 -1.750000 -7.500000 -2.671875q-3.781250 -0.937500 -7.500000 -0.937500q-9.765625 0.000000 -14.921875 6.593750q-5.140625 6.593750 -5.875000 19.921875q2.875000 -4.250000 7.218750 -6.515625q4.359375 -2.265625 9.578125 -2.265625q10.984375 0.000000 17.359375 6.671875q6.375000 6.656250 6.375000 18.125000q0.000000 11.234375 -6.640625 18.031250q-6.640625 6.781250 -17.671875 6.781250q-12.656250 0.000000 -19.343750 -9.687500q-6.687500 -9.703125 -6.687500 -28.109375q0.000000 -17.281250 8.203125 -27.562500q8.203125 -10.281250 22.015625 -10.281250q3.718750 0.000000 7.500000 0.734375q3.781250 0.734375 7.890625 2.187500"/>
</defs>
<g style="fill: #000000; opacity: 1.000000" transform="translate(21.668750,135.695187)scale(0.120000)">
<use xlink:href="#c_7a2040fe3b94fcd41d0a72c84e93b115"/>
<use xlink:href="#c_ed3e21196fb739f392806f09ca0594ef" x="63.623047"/>
<use xlink:href="#c_cc8d6d580d1b10c8632f7a42cd53db8a" x="95.410156"/>
</g>
</g>
</g>
<g id="ytick5">
<g id="line2d24">
<g ><use style="fill: none; stroke: #000000; stroke-width: 0.500000; stroke-linejoin: round; stroke-linecap: butt;  opacity: 1.000000" xlink:href="#m3400efa6b1638b3fea9e19e898273957" x="43.200000" y="108.288000"/>
</g></g>
<g id="line2d25">
<g ><use style="fill: none; stroke: #000000; stroke-width: 0.500000; stroke-linejoin: round; stroke-linecap: butt;  opacity: 1.000000" xlink:href="#m20b58b2501143cb5e0a5e8f1ef6f1643" x="270.720000" y="108.288000"/>
</g></g>
<g id="text12">
<defs>
<path id="c_bef35738d52871942e50b9de9b122bab" d="M31.781250 -34.625000q-7.031250 0.000000 -11.062500 3.765625q-4.015625 3.765625 -4.015625 10.343750q0.000000 6.593750 4.015625 10.359375q4.031250 3.765625 11.062500 3.765625q7.031250 0.000000 11.078125 -3.781250q4.062500 -3.796875 4.062500 -10.343750q0.000000 -6.578125 -4.031250 -10.343750q-4.015625 -3.765625 -11.109375 -3.765625M21.921875 -38.812500q-6.343750 -1.562500 -9.890625 -5.906250q-3.531250 -4.359375 -3.531250 -10.609375q0.000000 -8.734375 6.218750 -13.812500q6.234375 -5.078125 17.062500 -5.078125q10.890625 0.000000 17.093750 5.078125q6.203125 5.078125 6.203125 13.812500q0.000000 6.250000 -3.546875 10.609375q-3.531250 4.343750 -9.828125 5.906250q7.125000 1.656250 11.093750 6.500000q3.984375 4.828125 3.984375 11.796875q0.000000 10.609375 -6.468750 16.281250q-6.468750 5.656250 -18.531250 5.656250q-12.046875 0.000000 -18.531250 -5.656250q-6.468750 -5.671875 -6.468750 -16.281250q0.000000 -6.968750 4.000000 -11.796875q4.015625 -4.843750 11.140625 -6.500000M18.312500 -54.390625q0.000000 5.656250 3.531250 8.828125q3.546875 3.171875 9.937500 3.171875q6.359375 0.000000 9.937500 -3.171875q3.593750 -3.171875 3.593750 -8.828125q0.000000 -5.671875 -3.593750 -8.843750q-3.578125 -3.171875 -9.937500 -3.171875q-6.390625 0.000000 -9.937500 3.171875q-3.531250 3.171875 -3.531250 8.843750"/>
</defs>
<g style="fill: #000000; opacity: 1.000000" transform="translate(21.731250,112.655187)scale(0.120000)">
<use xlink:href="#c_7a2040fe3b94fcd41d0a72c84e93b115"/>
<use xlink:href="#c_ed3e21196fb739f392806f09ca0594ef" x="63.623047"/>
<use xlink:href="#c_bef35738d52871942e50b9de9b122bab" x="95.410156"/>
</g>
</g>
</g>
<g id="ytick6">
<g id="line2d26">
<g ><use style="fill: none; stroke: #000000; stroke-width: 0.500000; stroke-linejoin: round; stroke-linecap: butt;  opacity: 1.000000" xlink:href="#m3400efa6b1638b3fea9e19e898273957" x="43.200000" y="85.248000"/>
</g></g>
<g id="line2d27">
<g ><use style="fill: none; stroke: #000000; stroke-width: 0.500000; stroke-linejoin: round; stroke-linecap: butt;  opacity: 1.000000" xlink:href="#m20b58b2501143cb5e0a5e8f1ef6f1643" x="270.720000" y="85.248000"/>
</g></g>
<g id="text13">
<g style="fill: #000000; opacity: 1.000000" transform="translate(22.215625,89.615187)scale(0.120000)">
<use xlink:href="#c_42baa63129a918535c52adb20d687ea7"/>
<use xlink:href="#c_ed3e21196fb739f392806f09ca0594ef" x="63.623047"/>
<use xlink:href="#c_7a2040fe3b94fcd41d0a72c84e93b115" x="95.410156"/>
</g>
</g>
</g>
<g id="ytick7">
<g id="line2d28">
<g ><use style="fill: none; stroke: #000000; stroke-width: 0.500000; stroke-linejoin: round; stroke-linecap: butt;  opacity: 1.000000" xlink:href="#m3400efa6b1638b3fea9e19e898273957" x="43.200000" y="62.208000"/>
</g></g>
<g id="line2d29">
<g ><use style="fill: none; stroke: #000000; stroke-width: 0.500000; stroke-linejoin: round; stroke-linecap: butt;  opacity: 1.000000" xlink:href="#m20b58b2501143cb5e0a5e8f1ef6f1643" x="270.720000" y="62.208000"/>
</g></g>
<g id="text14">
<g style="fill: #000000; opacity: 1.000000" transform="translate(22.621875,66.661125)scale(0.120000)">
<use xlink:href="#c_42baa63129a918535c52adb20d687ea7"/>
<use xlink:href="#c_ed3e21196fb739f392806f09ca0594ef" x="63.623047"/>
<use xlink:href="#c_ed3f3ed3ebfbd18bcb9c012009a68ad1" x="95.410156"/>
</g>
</g>
</g>
<g id="ytick8">
<g id="line2d30">
<g ><use style="fill: none; stroke: #000000; stroke-width: 0.500000; stroke-linejoin: round; stroke-linecap: butt;  opacity: 1.000000" xlink:href="#m3400efa6b1638b3fea9e19e898273957" x="43.200000" y="39.168000"/>
</g></g>
<g id="line2d31">
<g ><use style="fill: none; stroke: #000000; stroke-width: 0.500000; stroke-linejoin: round; stroke-linecap: butt;  opacity: 1.000000" xlink:href="#m20b58b2501143cb5e0a5e8f1ef6f1643" x="270.720000" y="39.168000"/>
</g></g>
<g id="text15">
<g style="fill: #000000; opacity: 1.000000" transform="translate(22.090625,43.543000)scale(0.120000)">
<use xlink:href="#c_42baa63129a918535c52adb20d687ea7"/>
<use xlink:href="#c_ed3e21196fb739f392806f09ca0594ef" x="63.623047"/>
<use xlink:href="#c_a0416418d96557a09b8c1332d34883ba" x="95.410156"/>
</g>
</g>
</g>
<g id="ytick9">
<g id="line2d32">
<g ><use style="fill: none; stroke: #000000; stroke-width: 0.500000; stroke-linejoin: round; stroke-linecap: butt;  opacity: 1.000000" xlink:href="#m3400efa6b1638b3fea9e19e898273957" x="43.200000" y="16.128000"/>
</g></g>
<g id="line2d33">
<g ><use style="fill: none; stroke: #000000; stroke-width: 0.500000; stroke-linejoin: round; stroke-linecap: butt;  opacity: 1.000000" xlink:href="#m20b58b2501143cb5e0a5e8f1ef6f1643" x="270.720000" y="16.128000"/>
</g></g>
<g id="text16">
<g style="fill: #000000; opacity: 1.000000" transform="translate(22.184375,20.495187)scale(0.120000)">
<use xlink:href="#c_42baa63129a918535c52adb20d687ea7"/>
<use xlink:href="#c_ed3e21196fb739f392806f09ca0594ef" x="63.623047"/>
<use xlink:href="#c_cc8d6d580d1b10c8632f7a42cd53db8a" x="95.410156"/>
</g>
</g>
</g>
<g id="text17">
<defs>
<path id="c_518d586bee075aa0153eaebfcb5ab11f" d="M19.671875 -64.796875l0.000000 27.390625l12.406250 0.000000q6.890625 0.000000 10.640625 -3.562500q3.765625 -3.562500 3.765625 -10.156250q0.000000 -6.546875 -3.765625 -10.109375q-3.750000 -3.562500 -10.640625 -3.562500zM9.812500 -72.906250l22.265625 0.000000q12.265625 0.000000 18.531250 5.546875q6.281250 5.546875 6.281250 16.234375q0.000000 10.796875 -6.281250 16.312500q-6.265625 5.515625 -18.531250 5.515625l-12.406250 0.000000l0.000000 29.296875l-9.859375 0.000000z"/>
<path id="c_7efa9804c2b4c09a4b614b91fdebee3d" d="M31.000000 -75.875000q-6.531250 11.218750 -9.718750 22.218750q-3.171875 10.984375 -3.171875 22.265625q0.000000 11.265625 3.203125 22.328125q3.203125 11.062500 9.687500 22.250000l-7.812500 0.000000q-7.312500 -11.484375 -10.953125 -22.562500q-3.640625 -11.078125 -3.640625 -22.015625q0.000000 -10.890625 3.609375 -21.921875q3.625000 -11.046875 10.984375 -22.562500z"/>
<path id="c_e96974be642f6eac0427d72f9cec6c19" d="M8.015625 -75.875000l7.812500 0.000000q7.312500 11.515625 10.953125 22.562500q3.640625 11.031250 3.640625 21.921875q0.000000 10.937500 -3.640625 22.015625q-3.640625 11.078125 -10.953125 22.562500l-7.812500 0.000000q6.484375 -11.187500 9.687500 -22.250000q3.203125 -11.062500 3.203125 -22.328125q0.000000 -11.281250 -3.203125 -22.265625q-3.203125 -11.000000 -9.687500 -22.218750"/>
</defs>
<g style="fill: #000000; opacity: 1.000000" transform="translate(16.575000,117.467687)rotate(-90.0)scale(0.120000)">
<use xlink:href="#c_518d586bee075aa0153eaebfcb5ab11f"/>
<use xlink:href="#c_7efa9804c2b4c09a4b614b91fdebee3d" x="60.302734"/>
<use xlink:href="#c_801fe2e877fad46da27c898b407b3b54" x="99.316406"/>
<use xlink:href="#c_e96974be642f6eac0427d72f9cec6c19" x="158.496094"/>
</g>
</g>
</g>
<g id="patch3">
<path style="fill: none; stroke: #000000; stroke-width: 1.000000; stroke-linejoin: round; stroke-linecap: square;  opacity: 1.000000"  d="M43.200000 16.128000L270.720000 16.128000"/>
</g>
<g id="patch4">
<path style="fill: none; stroke: #000000; stroke-width: 1.000000; stroke-linejoin: round; stroke-linecap: square;  opacity: 1.000000"  d="M270.720000 200.448000L270.720000 16.128000"/>
</g>
<g id="patch5">
<path style="fill: none; stroke: #000000; stroke-width: 1.000000; stroke-linejoin: round; stroke-linecap: square;  opacity: 1.000000"  d="M43.200000 200.448000L270.720000 200.448000"/>
</g>
<g id="patch6">
<path style="fill: none; stroke: #000000; stroke-width: 1.000000; stroke-linejoin: round; stroke-linecap: square;  opacity: 1.000000"  d="M43.200000 200.448000L43.200000 16.128000"/>
</g>
<g id="legend1">
<g id="line2d34">
<path style="fill: none; stroke: #ffa500; stroke-width: 2.500000; stroke-linejoin: round; stroke-linecap: square;  opacity: 1.000000"  d="M179.760000 34.688625L208.560000 34.688625"/>
</g>
<g id="line2d35">
</g>
<g id="text18">
<defs>
<path id="c_9f3e64f1d3df67c852bf1bb9b070bbba" d="M5.078125 -1.703125q0.000000 -1.468750 1.312500 -2.796875l28.125000 -27.578125l-9.906250 -27.828125q-1.171875 -3.187500 -2.468750 -5.031250q-1.296875 -1.859375 -3.734375 -1.859375q-1.125000 0.000000 -1.125000 -1.312500q0.109375 -0.593750 0.500000 -0.937500q0.390625 -0.343750 1.015625 -0.343750q10.500000 0.000000 12.703125 6.203125l20.312500 56.687500q1.312500 4.250000 2.687500 5.718750q0.484375 0.734375 0.484375 0.984375q0.000000 0.921875 -0.781250 0.921875l-5.421875 0.000000q-2.484375 -0.734375 -3.953125 -4.343750l-9.140625 -25.593750l-24.156250 28.421875q-1.812500 1.703125 -3.234375 1.703125q-1.265625 0.000000 -2.250000 -0.875000q-0.968750 -0.875000 -0.968750 -2.140625"/>
<path id="c_7bbc93c01755cdeb977d08bdfb9ce616" d="M7.515625 -13.281250q-0.828125 0.000000 -1.375000 -0.625000q-0.531250 -0.640625 -0.531250 -1.375000q0.000000 -0.828125 0.531250 -1.406250q0.546875 -0.593750 1.375000 -0.593750l62.796875 0.000000q0.734375 0.000000 1.265625 0.593750q0.546875 0.578125 0.546875 1.406250q0.000000 0.734375 -0.546875 1.375000q-0.531250 0.625000 -1.265625 0.625000zM7.515625 -32.718750q-0.828125 0.000000 -1.375000 -0.578125q-0.531250 -0.593750 -0.531250 -1.421875q0.000000 -0.734375 0.531250 -1.359375q0.546875 -0.640625 1.375000 -0.640625l62.796875 0.000000q0.734375 0.000000 1.265625 0.640625q0.546875 0.625000 0.546875 1.359375q0.000000 0.828125 -0.546875 1.421875q-0.531250 0.578125 -1.265625 0.578125z"/>
<path id="c_f47f2818876b2f1a61c47f270461e46e" d="M25.000000 2.203125q-12.250000 0.000000 -16.671875 -10.078125q-4.421875 -10.093750 -4.421875 -24.015625q0.000000 -8.687500 1.578125 -16.343750q1.593750 -7.671875 6.296875 -13.015625q4.718750 -5.359375 13.218750 -5.359375q6.593750 0.000000 10.781250 3.234375q4.203125 3.218750 6.406250 8.328125q2.203125 5.093750 3.000000 10.937500q0.812500 5.828125 0.812500 12.218750q0.000000 8.593750 -1.593750 16.093750q-1.578125 7.500000 -6.218750 12.750000q-4.640625 5.250000 -13.187500 5.250000M25.000000 -0.390625q5.562500 0.000000 8.296875 -5.703125q2.734375 -5.718750 3.375000 -12.656250q0.640625 -6.937500 0.640625 -14.750000q0.000000 -7.515625 -0.640625 -13.859375q-0.640625 -6.359375 -3.359375 -11.500000q-2.703125 -5.156250 -8.312500 -5.156250q-5.656250 0.000000 -8.390625 5.187500q-2.734375 5.171875 -3.375000 11.500000q-0.640625 6.312500 -0.640625 13.828125q0.000000 5.562500 0.265625 10.500000q0.281250 4.937500 1.453125 10.187500q1.171875 5.250000 3.781250 8.843750q2.609375 3.578125 6.906250 3.578125"/>
<path id="c_8b48a7401ae680eb5f4c605f13a7b112" d="M8.406250 -5.515625q0.000000 -2.250000 1.656250 -3.859375q1.656250 -1.609375 3.859375 -1.609375q1.359375 0.000000 2.671875 0.734375q1.328125 0.734375 2.062500 2.046875q0.734375 1.312500 0.734375 2.687500q0.000000 2.187500 -1.625000 3.859375q-1.609375 1.656250 -3.843750 1.656250q-2.203125 0.000000 -3.859375 -1.656250q-1.656250 -1.671875 -1.656250 -3.859375"/>
<path id="c_7d09e94cce4bdf71f2297f5bbc354b76" d="M8.687500 -11.375000q1.031250 2.921875 3.156250 5.328125q2.125000 2.390625 5.031250 3.734375q2.906250 1.328125 6.031250 1.328125q7.218750 0.000000 9.953125 -5.609375q2.734375 -5.609375 2.734375 -13.625000q0.000000 -3.468750 -0.125000 -5.828125q-0.109375 -2.375000 -0.656250 -4.562500q-0.921875 -3.515625 -3.250000 -6.156250q-2.312500 -2.640625 -5.687500 -2.640625q-3.359375 0.000000 -5.781250 1.031250q-2.421875 1.015625 -3.937500 2.390625q-1.500000 1.359375 -2.671875 2.875000q-1.171875 1.515625 -1.468750 1.609375l-1.125000 0.000000q-0.250000 0.000000 -0.625000 -0.312500q-0.359375 -0.312500 -0.359375 -0.609375l0.000000 -33.406250q0.000000 -0.234375 0.312500 -0.500000q0.328125 -0.281250 0.671875 -0.281250l0.296875 0.000000q6.734375 3.234375 14.296875 3.234375q7.421875 0.000000 14.312500 -3.234375l0.296875 0.000000q0.343750 0.000000 0.625000 0.250000q0.296875 0.250000 0.296875 0.531250l0.000000 0.937500q0.000000 0.484375 -0.187500 0.484375q-3.421875 4.546875 -8.578125 7.093750q-5.156250 2.531250 -10.671875 2.531250q-4.000000 0.000000 -8.203125 -1.125000l0.000000 18.890625q3.328125 -2.687500 5.937500 -3.828125q2.609375 -1.156250 6.671875 -1.156250q5.515625 0.000000 9.875000 3.187500q4.375000 3.171875 6.718750 8.281250q2.343750 5.093750 2.343750 10.406250q0.000000 6.015625 -2.953125 11.140625q-2.953125 5.125000 -8.031250 8.156250q-5.078125 3.031250 -11.031250 3.031250q-4.937500 0.000000 -9.062500 -2.531250q-4.125000 -2.546875 -6.500000 -6.843750q-2.359375 -4.296875 -2.359375 -9.140625q0.000000 -2.250000 1.453125 -3.656250q1.468750 -1.421875 3.671875 -1.421875q2.203125 0.000000 3.687500 1.453125q1.484375 1.437500 1.484375 3.625000q0.000000 2.156250 -1.484375 3.640625q-1.484375 1.484375 -3.687500 1.484375q-0.343750 0.000000 -0.781250 -0.062500q-0.437500 -0.078125 -0.640625 -0.125000"/>
</defs>
<g id="mathtext1">
<g style="fill: #000000" transform="translate(215.760000,40.728625)">
<use xlink:href="#c_9f3e64f1d3df67c852bf1bb9b070bbba" transform="translate(0.000000,-1.015625)scale(0.144000)"/>
<use xlink:href="#c_7bbc93c01755cdeb977d08bdfb9ce616" transform="translate(10.916638,-1.015625)scale(0.144000)"/>
<use xlink:href="#c_f47f2818876b2f1a61c47f270461e46e" transform="translate(23.005930,-1.015625)scale(0.144000)"/>
<use xlink:href="#c_8b48a7401ae680eb5f4c605f13a7b112" transform="translate(30.201242,-1.015625)scale(0.144000)"/>
<use xlink:href="#c_7d09e94cce4bdf71f2297f5bbc354b76" transform="translate(34.306158,-1.015625)scale(0.144000)"/>
</g>
</g>
</g>
<g id="line2d36">
<path style="fill: none; stroke: #800080; stroke-width: 2.500000; stroke-linejoin: round; stroke-linecap: square;  opacity: 1.000000"  d="M179.760000 55.435500L208.560000 55.435500"/>
</g>
<g id="line2d37">
</g>
<g id="text19">
<defs>
<path id="c_1a459ac34855d27ec37ccb0e66298d36" d="M9.281250 -0.000000l0.000000 -3.515625q12.500000 0.000000 12.500000 -3.171875l0.000000 -52.500000q-5.171875 2.500000 -13.093750 2.500000l0.000000 -3.515625q12.265625 0.000000 18.515625 -6.406250l1.406250 0.000000q0.343750 0.000000 0.656250 0.281250q0.328125 0.265625 0.328125 0.609375l0.000000 59.031250q0.000000 3.171875 12.500000 3.171875l0.000000 3.515625z"/>
</defs>
<g id="mathtext2">
<g style="fill: #000000" transform="translate(215.760000,61.475500)">
<use xlink:href="#c_9f3e64f1d3df67c852bf1bb9b070bbba" transform="translate(0.000000,-1.015625)scale(0.144000)"/>
<use xlink:href="#c_7bbc93c01755cdeb977d08bdfb9ce616" transform="translate(10.916638,-1.015625)scale(0.144000)"/>
<use xlink:href="#c_1a459ac34855d27ec37ccb0e66298d36" transform="translate(23.005930,-1.015625)scale(0.144000)"/>
</g>
</g>
</g>
<g id="line2d38">
<path style="fill: none; stroke: #add8e6; stroke-width: 2.500000; stroke-linejoin: round; stroke-linecap: square;  opacity: 1.000000"  d="M179.760000 76.182375L208.560000 76.182375"/>
</g>
<g id="line2d39">
</g>
<g id="text20">
<g id="mathtext3">
<g style="fill: #000000" transform="translate(215.760000,82.222375)">
<use xlink:href="#c_9f3e64f1d3df67c852bf1bb9b070bbba" transform="translate(0.000000,-1.015625)scale(0.144000)"/>
<use xlink:href="#c_7bbc93c01755cdeb977d08bdfb9ce616" transform="translate(10.916638,-1.015625)scale(0.144000)"/>
<use xlink:href="#c_1a459ac34855d27ec37ccb0e66298d36" transform="translate(23.005930,-1.015625)scale(0.144000)"/>
<use xlink:href="#c_8b48a7401ae680eb5f4c605f13a7b112" transform="translate(30.201242,-1.015625)scale(0.144000)"/>
<use xlink:href="#c_7d09e94cce4bdf71f2297f5bbc354b76" transform="translate(34.306158,-1.015625)scale(0.144000)"/>
</g>
</g>
</g>
</g>
</g>
</g>
</svg>
